<?xml version="1.0" standalone="no"?><!DOCTYPE svg PUBLIC "-//W3C//DTD SVG 1.1//EN" "http://www.w3.org/Graphics/SVG/1.1/DTD/svg11.dtd"><svg class="icon" width="200px" height="137.82px" viewBox="0 0 1486 1024" version="1.1" xmlns="http://www.w3.org/2000/svg"><path fill="#2c2c2c" d="M877.76 217.76l-257.76 388.8 253.44 379.2h-143.04l-150.72-248.64c-9.6-15.36-20.64-35.04-33.6-58.56h-2.88l-35.04 58.56L353.6 985.76H212l262.08-376.32-251.04-391.68h142.56l149.28 262.56c11.04 19.68 21.6 39.36 32.16 60h2.88l192-322.56h135.84zM1246.88 485.6h-268.8v-33.12c0-12.96 1.92-25.92 5.76-37.92 3.84-11.52 9.12-23.04 15.36-33.6 6.72-10.56 13.92-20.64 22.56-29.28 8.64-9.6 18.24-19.2 27.84-27.84 9.6-8.64 19.68-17.28 29.76-24.96l29.76-24.48c9.12-7.68 17.28-15.36 24.96-23.04 7.2-7.2 13.92-14.88 19.68-23.04 5.28-7.68 9.6-16.32 12.48-25.44 2.88-9.12 4.32-18.24 4.32-27.84 0-10.08-1.44-20.16-5.28-29.76-3.36-8.16-8.16-15.36-14.88-21.12-6.24-5.76-13.92-10.08-22.08-12.96-9.12-2.88-18.24-4.32-27.84-4.32-18.24 0-36.48 4.32-53.28 12-19.2 9.12-36.96 21.6-52.32 36.48V89.12c8.64-6.24 18.24-12 27.84-17.28 9.12-4.8 18.24-9.12 27.84-12 9.6-3.36 19.68-5.76 30.24-7.2 11.04-1.44 22.56-2.4 33.6-2.4 17.76 0 35.52 2.4 52.32 7.68 14.88 4.8 28.8 12.48 40.32 22.56 11.52 10.08 20.16 23.04 25.92 36.96 6.24 16.32 9.12 33.12 8.64 50.4 0 15.84-1.92 31.68-6.24 46.56-4.32 13.92-10.56 26.88-18.24 38.88-8.16 12.48-17.28 23.52-27.84 34.08-11.04 10.56-23.52 21.6-37.44 33.12l-34.56 27.84c-11.52 9.12-21.6 17.28-30.72 25.92-8.16 7.68-15.84 15.84-22.08 25.44-5.28 7.68-8.16 16.32-8.64 25.44v1.44h194.88l-3.84 59.04z"  /></svg>