<?xml version="1.0" standalone="no"?><!DOCTYPE svg PUBLIC "-//W3C//DTD SVG 1.1//EN" "http://www.w3.org/Graphics/SVG/1.1/DTD/svg11.dtd"><svg class="icon" width="200px" height="200.00px" viewBox="0 0 1024 1024" version="1.1" xmlns="http://www.w3.org/2000/svg"><path fill="#2c2c2c" d="M656.29328118 788.135936h185.12342282l46.2805523-92.56110459v185.12342281h-277.68452741v-154.93074489c94.81966933-40.85805511 161.98193303-142.54929541 161.98193303-261.59422578 0-155.02176711-113.98409482-276.4187117-254.54425125-276.4187117-140.60506075 0-254.54303763 121.30470875-254.54303764 276.4187117 0 119.046144 67.11735941 220.7373843 161.98193305 261.59422578v154.93074489h-277.68452741v-185.12342281l46.2805523 92.56110459h185.12342281v-23.59296c-135.72262875-47.99783822-231.40397511-164.42254222-231.40397511-300.3721197 0-178.97760237 165.73447585-323.9650797 370.245632-323.96507971 204.46625185 0 370.245632 144.98869097 370.245632 323.96507971 0 135.94957748-95.72625067 252.28447289-231.40397512 300.3721197v23.59296z" /></svg>