<?xml version="1.0" standalone="no"?><!DOCTYPE svg PUBLIC "-//W3C//DTD SVG 1.1//EN" "http://www.w3.org/Graphics/SVG/1.1/DTD/svg11.dtd"><svg class="icon" width="200px" height="200.00px" viewBox="0 0 1024 1024" version="1.1" xmlns="http://www.w3.org/2000/svg"><path fill="#2c2c2c" d="M463.5417267 168.74899519a27.9260559 27.9260559 0 0 1-28.33587214 27.51623891h-49.56826078q-35.79062638 0-51.03189073 20.76402763Q318.50577638 236.83705097 318.50577638 283.49756747v62.33111201h110.98216495A27.32108899 27.32108899 0 0 1 457.35545173 372.8180119a27.32108899 27.32108899 0 0 1-27.78945 27.00884808H318.50577638v456.86714751A26.48194086 26.48194086 0 0 1 291.6335342 882.78564703a26.48194086 26.48194086 0 0 1-26.87224217-26.09163954V399.82685998H169.02039069A27.41866432 27.41866432 0 0 1 141.21142578 372.8180119a27.32108899 27.32108899 0 0 1 27.80896491-26.98933242h95.74090134V282.46326867q0-68.55641753 28.64811233-102.82486846Q322.97472522 141.21324061 381.24670463 141.21324061h54.03721035a27.94557082 27.94557082 0 0 1 28.25781171 27.53575457zM541.62149533 345.82867948A27.32108899 27.32108899 0 0 1 564.6882996 358.22074503l124.56464941 194.27245525 124.66222473-194.40906115a26.96981751 26.96981751 0 0 1 22.73504844-12.25545965c21.11529839 0 33.91718017 22.61795819 22.59844327 39.9278194L719.63790237 599.23177718l158.8721309 243.0796283c11.47485701 17.56355663-1.5026598 40.47424154-22.91068417 40.47424154a27.32108899 27.32108899 0 0 1-23.04729009-12.45061033l-143.37717041-224.4232281-144.25534766 224.4232281a27.32108899 27.32108899 0 0 1-22.98874459 12.45061033c-21.46656986 0-34.36602627-22.94971475-22.85213943-40.47424154l159.65273284-243.0796283-139.94251892-212.94837108c-11.51388758-17.50501187 1.44411503-40.45472662 22.83262449-40.45472662z"  /></svg>