<?xml version="1.0" standalone="no"?><!DOCTYPE svg PUBLIC "-//W3C//DTD SVG 1.1//EN" "http://www.w3.org/Graphics/SVG/1.1/DTD/svg11.dtd"><svg class="icon" width="200px" height="169.26px" viewBox="0 0 1210 1024" version="1.1" xmlns="http://www.w3.org/2000/svg"><path fill="#2c2c2c" d="M489.35618986 143.00866407L163.16669973 708.16963772c-1.39021962 2.45117753-0.32926242 4.28041372 2.30483844 4.28041371l652.70824264 0c2.63410087 0 3.65847309-1.9024061 2.30483845-4.28041371L494.29512915 143.00866407C492.90490881 140.5940715 490.70982524 140.63065645 489.35618986 143.00866407zM228.39728062 670.59711585L490.67324028 216.98299645l262.27595967 453.6141194L228.39728062 670.59711585z"  /><path fill="#2c2c2c" d="M769.375745 846.20384037c-82.27906729 0-154.60708682-43.42607923-196.16734491-108.98592328l-41.59684305-1e-8c45.25531614 86.63265092 134.74157621 145.57065712 237.76418723 145.57065714 148.68035951 0 269.22705919-122.8515374 269.2270592-274.38550677s-120.54669895-274.38550677-269.2270592-274.38550678c-41.34074981 0-80.48641535 9.51203121-115.49800552 26.45076275l21.43865428 30.25557494c28.75560118-12.95099602 60.58431978-20.12160383 94.05935196-20.12160383 128.85143388 0 233.3008502 106.46157656 233.3008502 237.80077219C1002.67659519 739.74226381 898.22717888 846.20384037 769.375745 846.20384037z"  /></svg>