<?xml version="1.0" standalone="no"?><!DOCTYPE svg PUBLIC "-//W3C//DTD SVG 1.1//EN" "http://www.w3.org/Graphics/SVG/1.1/DTD/svg11.dtd"><svg class="icon" width="200px" height="200.00px" viewBox="0 0 1024 1024" version="1.1" xmlns="http://www.w3.org/2000/svg"><path d="M512 341L165.84615371 239.23076943 512 193.53846113l346.15384629 45.6923083z" fill="#BFBFBF" /><path d="M512 368.69230742c-2.76923057 0-5.53846114-0.69230742-7.61538427-1.38461484l-346.1538463-101.07692315c-12.46153886-3.46153886-20.76923057-15.92307685-20.07692314-28.38461572 0.69230742-13.15384629 11.07692315-23.53846114 24.23076943-25.61538428l346.15384542-45.6923083h7.61538514l346.1538463 45.6923083c13.15384629 1.38461572 22.84615372 12.46153886 24.23076856 25.61538428 0.69230742 13.15384629-6.92307685 24.92307685-20.07692228 28.38461572l-346.15384628 101.07692315c-2.76923057 0.69230742-5.53846114 1.38461572-8.30769258 1.38461484zM299.46153887 249.61538427l212.53846113 62.30769258 212.53846113-62.30769257L512 221.23076943l-212.53846113 28.38461484z" fill="#7F7F7F" /><path d="M512 858.15384629c-4.84615371 0-9-1.38461572-13.15384629-3.46153887-9-4.84615371-14.53846113-13.84615371-14.53846113-24.23076856V341c0-12.46153886 8.30769258-22.84615372 20.07692315-26.30769258l346.15384541-101.07692314c8.30769258-2.76923057 17.30769258-0.69230742 24.23076943 4.15384629 6.92307685 5.53846114 11.07692315 13.15384629 11.07692314 22.15384628v371.76923057c0 9.69230742-4.84615371 18-13.15384629 23.53846201l-346.15384629 218.76923057c-4.15384629 2.76923057-9.69230742 4.15384629-14.53846113 4.15384628z m27.69230742-496.38461572v418.15384628l290.76923144-184.15384628V276.61538427L539.69230742 361.76923057z" fill="#7F7F7F" /><path d="M512 341V830.46153887L165.84615371 611.69230742V239.23076943z" fill="#BFBFBF" /><path d="M512 858.15384629c-4.84615371 0-10.38461572-1.38461572-14.53846113-4.15384629l-346.15384629-218.76923057c-8.30769258-4.84615371-13.15384629-13.84615371-13.1538463-23.53846201V239.23076943c0-9 4.15384629-16.61538428 11.07692315-22.15384628 6.92307685-5.53846114 15.92307685-6.92307685 24.23076944-4.1538463l346.1538454 101.07692315c11.76923057 3.46153886 20.07692315 14.53846113 20.07692315 26.30769258V830.46153887c0 10.38461572-5.53846114 19.38461572-14.53846114 24.23076855-4.15384629 2.07692315-8.30769258 3.46153886-13.15384628 3.46153886zM193.53846113 595.76923057l290.76923145 184.15384628V361.76923057L193.53846113 276.61538427v319.1538463z" fill="#7F7F7F" /><path d="M165.84615371 639.38461573c-12.46153886 0-24.23076943-9-26.99999999-21.46153888-3.46153886-15.23076943 6.23076943-29.76923057 20.76923055-33.23076943l103.8461546-22.84615371c15.23076943-3.46153886 29.76923057 6.23076943 33.23076855 20.76923057 3.46153886 15.23076943-6.23076943 29.76923057-20.76923057 33.23076943l-103.8461537 22.84615371c-2.07692315 0-4.15384629 0.69230742-6.23076943 0.69230831zM352.76923057 597.84615372c-12.46153886 0-24.23076943-9-27-21.46153799-3.46153886-15.23076943 6.23076943-29.76923057 20.76923057-33.23076945l37.38461571-8.30769257c15.23076943-3.46153886 29.76923057 6.23076943 33.23076944 20.76923057 3.46153886 15.23076943-6.23076943 29.76923057-20.76923056 33.23076944l-37.38461573 8.30769257c-2.76923057 0.69230742-4.84615371 0.69230742-6.23076943 0.69230743zM459.38461572 574.30769258c-12.46153886 0-24.23076943-9-27-21.46153887-3.46153886-15.23076943 6.23076943-29.76923057 20.76923057-33.23076943l52.61538428-11.76923057c15.23076943-3.46153886 29.76923057 6.23076943 33.23076943 20.76923057 3.46153886 15.23076943-6.23076943 29.76923057-20.76923057 33.23076944l-52.61538516 11.76923055c-2.76923057 0.69230742-4.15384629 0.69230742-6.23076855 0.69230831z" fill="#7F7F7F" /><path d="M564.61538428 574.30769258c-2.07692315 0-4.15384629 0-6.23076855-0.69230831l-52.61538516-11.76923056c-15.23076943-3.46153886-24.23076943-18-20.76923057-33.23076943s18-24.23076943 33.23076943-20.76923056l52.61538429 11.76923056c15.23076943 3.46153886 24.23076943 18 20.76923056 33.23076944-2.76923057 12.46153886-13.84615371 21.46153887-27 21.46153886zM699.61538427 604.07692315c-2.07692315 0-4.15384629 0-6.23076854-0.69230743l-28.38461573-6.23076944c-15.23076943-3.46153886-24.23076943-18-20.76923057-33.23076943 3.46153886-15.23076943 18-24.23076943 33.23076944-20.76923057l28.38461485 6.23076944c15.23076943 3.46153886 24.23076943 18 20.76923055 33.23076855-2.76923057 12.46153886-13.84615371 21.46153887-27 21.46153888zM858.15384629 639.38461573c-2.07692315 0-4.15384629 0-6.23076944-0.69230831L768.15384628 620c-15.23076943-3.46153886-24.23076943-18-20.76923055-33.23076943s18-24.23076943 33.23076855-20.76923057l84.46153887 18.69230742c15.23076943 3.46153886 24.23076943 18 20.76923056 33.23076943-3.46153886 12.46153886-15.23076943 21.46153887-27.69230743 21.46153888z" fill="#7F7F7F" /><path d="M512 562.53846113c-15.23076943 0-27.69230742-12.46153886-27.69230742-27.69230742V295.30769258c0-15.23076943 12.46153886-27.69230742 27.69230742-27.69230831s27.69230742 12.46153886 27.69230742 27.69230831v240.23076855c0 14.53846113-12.46153886 27-27.69230742 27.00000001z" fill="#7F7F7F" /><path d="M512 251.69230742c-15.23076943 0-27.69230742-12.46153886-27.69230742-27.69230742V193.53846113c0-15.23076943 12.46153886-27.69230742 27.69230742-27.69230741s27.69230742 12.46153886 27.69230742 27.69230742v30.46153886c0 15.23076943-12.46153886 27.69230742-27.69230742 27.69230742z" fill="#7F7F7F" /></svg>