<?xml version="1.0" standalone="no"?><!DOCTYPE svg PUBLIC "-//W3C//DTD SVG 1.1//EN" "http://www.w3.org/Graphics/SVG/1.1/DTD/svg11.dtd"><svg class="icon" width="200px" height="200.00px" viewBox="0 0 1024 1024" version="1.1" xmlns="http://www.w3.org/2000/svg"><path fill="#2c2c2c" d="M206.46152448 567.9079647c-38.02031279-19.11878586-53.59053611-65.32251835-34.32691096-103.56009006 18.97394658-38.16515208 65.25009871-53.44569682 103.48767041-34.47175026 26.14349127 13.10795545 41.64129496 38.96176815 42.58275032 66.26397372h71.69544698c6.15566969-22.59492874 21.29137516-41.78613425 41.42403603-53.01117899l-23.68122341-147.59123324c-12.45617866 0.28967857-24.98477698-2.38984824-36.78917883-8.25583935-38.09273242-19.04636622-53.37327719-65.46735764-34.32691098-103.48767042C355.57357025 145.84628296 402.06698132 130.27605962 440.01487446 149.39484548c38.09273242 19.26362514 53.51811648 65.46735764 34.32691097 103.48767043-8.54551793 16.94619655-22.30525017 29.47479488-38.59966993 36.28224135l24.55025911 144.04267071c2.46226788-0.36209822 4.70727683-0.65177679 7.31438398-0.79661607 28.67817878-2.02775002 54.74925041 10.35600901 72.05754519 30.70592879l39.61354495-24.5502591c-8.61793757-15.28054476-11.22504473-34.18207168-4.9969554-52.2145629 11.58714294-33.74755383 48.08664322-51.99730396 81.83419705-40.41016101 33.74755383 11.15262508 51.92488433 47.86938428 40.48258065 81.47209883-11.44230366 33.89239312-48.15906287 51.92488433-81.83419705 40.48258066-9.05245543-2.89678574-16.80135728-7.89374114-23.31912517-13.83215189l-37.80305386 32.95093775c3.18646431 8.03858042 5.06937504 16.72893763 5.64873219 25.85381269 0.36209822 6.0108304 0.14483929 11.80440188-0.57935715 17.67039299l137.74216176 49.02809859c15.13570548-26.21591092 43.45178603-44.10356284 75.96820592-44.10356284 48.3763218 0 87.62776852 39.46870567 87.62776852 87.77260781 0 48.52116108-39.25144673 87.70018816-87.62776852 87.70018815s-87.70018816-39.17902708-87.70018816-87.70018815c0-5.72115184 0.50693751-11.44230366 1.52081252-16.72893764l-136.65586711-47.36244676c-13.83215189 25.56413413-39.75838423 43.45178603-70.53673266 45.47953605-16.72893763 1.1587143-32.51641989-2.53468752-46.49341106-9.9939108l-43.23452712 66.9157505c46.56583072 34.83384848 63.00508976 99.14249182 36.06498242 153.1675458-30.41625023 60.9049201-104.2842865 85.31033992-165.04436732 54.74925041C199.79891728 839.40920782 175.39349746 765.54117156 205.66490841 704.78109074 235.42938185 645.25214386 307.05240917 620.62946511 366.87103462 648.14892959l44.97259856-68.94350051c-13.39763404-13.39763404-22.23283053-31.35770559-24.33300019-51.34552718l-75.02675056 0.43451787c-0.94145537 1.73807144-1.52081251 3.69340181-2.60710717 5.21421431-18.82910728 38.09273242-65.394938 53.66295577-103.41525078 34.39933062z m1e-8 0" /></svg>