<?xml version="1.0" standalone="no"?><!DOCTYPE svg PUBLIC "-//W3C//DTD SVG 1.1//EN" "http://www.w3.org/Graphics/SVG/1.1/DTD/svg11.dtd"><svg class="icon" width="200px" height="200.00px" viewBox="0 0 1024 1024" version="1.1" xmlns="http://www.w3.org/2000/svg"><path d="M552.12303235 364.61123179h-30.63418701v-22.97564026a90.21767963 90.21767963 0 0 1 90.29426557-89.98792325v30.63418702A59.58349263 59.58349263 0 0 0 552.12303235 341.7887627zM503.33808996 456.82013298h-30.63418628V226.60422054A54.75860847 54.75860847 0 0 0 417.94529518 171.84561207V141.21142578a85.46938071 85.46938071 0 0 1 85.39279478 85.39279476z" fill="#282D33" /><path d="M512.5283462 514.64216044a39.90102774 39.90102774 0 0 1-39.82444253-39.82444253v-64.86789027h30.63418629v64.86789027a9.19025625 9.19025625 0 0 0 18.38051176 0V360.78195842h30.63418701v114.03575949a39.90102774 39.90102774 0 0 1-39.82444253 39.82444254zM364.64181027 301.35163623h-30.63418628v-74.74741569A85.54596593 85.54596593 0 0 1 419.47700397 141.21142578v30.63418629a54.8351937 54.8351937 0 0 0-54.8351937 54.75860847zM700.31590989 420.13569465h-30.63418628V341.7887627a59.58349263 59.58349263 0 0 0-59.50690814-59.5069074v-30.63418702a90.21767963 90.21767963 0 0 1 90.14109442 90.14109443z" fill="#282D33" /><path d="M345.80178572 813.47865058a130.80797655 130.80797655 0 0 1-130.19529334-119.16698597h260.39058593a130.88456249 130.88456249 0 0 1-130.19529259 119.16698597z" fill="#F8C44F" /><path d="M806.53995219 882.40557062H565.06597602a33.08492133 33.08492133 0 0 1-29.10247751-15.3170935 38.29273303 38.29273303 0 0 1-1e-8-37.75663503l91.90256031-186.48561059V533.32901383h-8.19464548V438.28645003H752.01109937V533.32901383H743.58669823v109.97673045L835.48925781 829.71476964a38.29273303 38.29273303 0 0 1 0 37.75663504 33.16150727 33.16150727 0 0 1-28.94930563 14.93416594zM650.30560033 502.69482753h8.57757231v147.73336479L563.76402291 843.27039725a12.1770893 12.1770893 0 0 0-1.83805111 7.65854604 9.72635424 9.72635424 0 0 0 3.14000422 0.45951277h241.47397616a5.89708087 5.89708087 0 0 0 3.21658944-0.61268321 12.4834309 12.4834309 0 0 0-1.8380511-7.65854676L712.95251195 650.42819232V502.69482753h8.42440115v-33.77419048h-71.07131277z" fill="#282D33" /><path d="M608.87286309 821.13719733l76.96839362-156.15776662 76.96839363 156.15776663h-153.93678725z" fill="#34CA9D" /><path d="M345.80178572 882.40557062a199.58172542 199.58172542 0 0 1-56.44348915-391.04539204V424.57765198h-12.02391811V328.69264786H414.26919225V424.57765198h-11.94733218v67.16545414a199.58172542 199.58172542 0 0 1-56.52007435 391.04539134zM307.96856546 393.94346497h12.02391811v121.46454986l-11.94733289 2.68049143a168.94753913 168.94753913 0 1 0 75.51327007 0l-11.87074768-2.68049143V393.94346497H383.63500597v-34.61663082h-75.6664405zM210.16892429 288.025765a48.55518599 48.55518599 0 1 1 48.47860006-48.55518599 48.63177121 48.63177121 0 0 1-48.47860006 48.55518599z m0-66.39959977a17.92099899 17.92099899 0 1 0 17.84441378 17.84441378 17.92099899 17.92099899 0 0 0-17.84441378-17.84441378zM784.55992271 174.60268945h30.63418701v29.17906273h-30.63418701zM720.92505869 227.44666089l15.31709351-26.52920555 25.27320414 14.5971901-15.31709351 26.52154716zM719.66139892 282.51161169l25.27320341-14.57421426 15.30943513 26.53686391-25.28086251 14.58187264zM781.95601722 308.47408426h30.63418628v29.17906274h-30.63418628zM835.62711222 296.62631316l15.31709279-26.52920554 25.27320412 14.59718939-15.31709349 26.52920553zM836.9290646 217.78923347l25.27320414-14.589531 15.31709352 26.52920553-25.27320415 14.58953101z" fill="#282D33" /></svg>