<?xml version="1.0" standalone="no"?><!DOCTYPE svg PUBLIC "-//W3C//DTD SVG 1.1//EN" "http://www.w3.org/Graphics/SVG/1.1/DTD/svg11.dtd"><svg class="icon" width="200px" height="200.00px" viewBox="0 0 1024 1024" version="1.1" xmlns="http://www.w3.org/2000/svg"><path d="M572.192 388.9184V255.968H478.1696v132.9504c-59.2896 19.7664-101.8128 75.456-101.8128 141.3408 0 82.0416 66.48 149.1216 149.1168 149.1216 82.0512 0 149.1264-66.48 149.1264-149.1216-0.6-65.8848-43.1136-121.5744-102.408-141.3408z m0 0" fill="#79D3E8" /><path d="M571.0016 774.6128c0-34.7424-44.9232-64.0896-44.9232-64.0896s-44.904 29.3424-44.904 64.0896c0 20.9616 20.352 41.3232 44.904 41.3232 24.5568 0 44.9232-20.3616 44.9232-41.3232z m0 0" fill="#F74541" /><path d="M525.4736 678.7808c82.0512 0 149.1264-66.48 149.1264-149.1216 0-8.9904-0.6-17.9616-2.3904-26.352-11.3808 11.3808-32.3424 25.752-65.2896 25.752-52.6992 0-91.032-34.7328-148.5168-34.7328-35.3328 0-64.0896 10.7712-80.8512 18.5616-0.6 5.3904-1.2 11.3808-1.2 16.7712a148.7616 148.7616 0 0 0 149.1216 149.1216z m0 0" fill="#FBD000" /><path d="M478.1696 307.472h94.0224v28.1472H478.1696z" fill="#5CC5D6" /><path d="M525.4736 633.2768c-74.2608 0-135.9456-54.504-147.3168-125.7792a139.9344 139.9344 0 0 0-1.8 22.7616c0 82.0416 66.48 149.1216 149.1168 149.1216 82.0512 0 149.1264-66.48 149.1264-149.1216 0-7.7904-0.6-15.5712-1.8-22.7616-11.3712 70.6704-73.056 125.7792-147.3264 125.7792z m0 0" fill="#F4B10B" /><path d="M597.944 260.7584c0 10.776-10.7808 19.7616-23.952 19.7616H476.9696c-13.1712 0-23.952-8.9856-23.952-19.7616 0-10.7856 10.7808-19.7616 23.952-19.7616h97.0224c13.1712 0 23.952 8.976 23.952 19.7616z m0 0" fill="#79D3E8" /><path d="M554.8256 789.5744c0-22.1616-28.752-41.3232-28.752-41.3232s-28.7424 18.5616-28.7424 41.3232c0 13.1808 13.1808 26.3616 28.7424 26.3616 15.5808 0 28.752-13.1808 28.752-26.3616z m0 0" fill="#F99900" /><path d="M342.2192 859.0544c0 7.1808-5.9904 13.1712-13.1808 13.1712-7.1808 0-13.1712-5.9904-13.1712-13.1712V146.3696c0-7.1856 5.9904-13.176 13.1712-13.176 7.1904 0 13.1808 5.9904 13.1808 13.176v712.6848z m0 0" fill="#3AD0F9" /><path d="M319.4576 310.4624h22.7616v28.1568h-22.7616z" fill="#17B2CC" /><path d="M274.544 832.7024h379.0992v46.104H274.544v-46.104z m0-525.8304c-7.1808 0-13.1808-5.9856-13.1808-13.1712s6-11.976 13.1808-11.976l336.5808-1.2c7.1808 0 13.1712 5.9904 13.1712 13.176s-5.9904 13.1712-13.1712 13.1712H274.544z m0 0" fill="#3AD0F9" /><path d="M497.3312 587.1488a24.0192 24.0192 0 0 1-23.952-23.952c0-13.176 10.7808-23.9568 23.952-23.9568 13.1808 0 23.952 10.7808 23.952 23.9568a24.0144 24.0144 0 0 1-23.952 23.952z m0-36.528c-7.1904 0-12.5712 5.9952-12.5712 12.576 0 7.1904 5.9808 12.5808 12.5712 12.5808 7.1808 0 12.5808-5.9904 12.5808-12.5808 0-7.1808-5.4-12.576-12.5808-12.576z m35.9328-77.256c-13.1712 0-23.952-10.7808-23.952-23.952s10.7808-23.9616 23.952-23.9616 23.952 10.7904 23.952 23.9616-10.7808 23.952-23.952 23.952z m0-36.5376c-7.1904 0-12.5712 5.9904-12.5712 12.5808 0 7.1808 5.9808 12.5712 12.5712 12.5712 7.1904 0 12.5712-5.9904 12.5712-12.5712 0-7.1904-5.3808-12.5808-12.5712-12.5808z m191.6448-23.352c-13.1712 0-23.952-10.7904-23.952-23.9568 0-13.176 10.7808-23.9616 23.952-23.9616s23.952 10.7856 23.952 23.9616c0 13.1664-10.7808 23.9568-23.952 23.9568z m0-36.5328c-7.1808 0-12.5808 5.9904-12.5808 12.576 0 7.1856 5.9904 12.576 12.5808 12.576 7.1904 0 12.5712-5.9904 12.5712-12.576 0-7.1856-5.3808-12.576-12.5712-12.576z m17.9712 270.096c-13.1808 0-23.9616-10.7712-23.9616-23.952 0-13.1712 10.7808-23.952 23.9616-23.952 13.1712 0 23.9424 10.7808 23.9424 23.952 0 13.1808-10.7712 23.952-23.9424 23.952z m0-36.528c-7.1904 0-12.5808 5.9904-12.5808 12.5712 0 7.1904 5.9904 12.5808 12.5808 12.5808 7.1808 0 12.5712-5.9904 12.5712-12.5808 0-7.1808-5.3904-12.5712-12.5712-12.5712z m-57.4944 98.2128c0-2.3904-2.3904-4.7904-5.9904-5.3904l-11.3808-1.7904c-2.9904-0.6-6.5808-3.5904-6.5808-6.5904l-1.8-11.3808c-0.6-2.9904-3-5.9904-5.3904-5.9904s-4.7904 2.4-5.3904 5.9904l-1.2 11.3808c-0.6 3-3.5904 6.5904-6.5808 6.5904l-11.3808 1.7904c-3 0.6-5.9904 3-5.9904 5.3904 0 2.4 2.3904 4.7904 5.9904 5.3904l11.3808 1.8c2.9904 0.6 6.5808 3.5904 6.5808 6.5904l1.8 11.3808c0.6 2.9904 2.9904 5.9808 5.3904 5.9808 2.3904 0 4.7904-2.3904 5.3904-5.9808l1.7904-12.5808c0.6-2.9904 3.5904-5.9904 6.5904-6.5904l10.7808-0.6c3-0.6 5.9904-2.9904 5.9904-5.3904z m-401.2608-117.3744c0-2.4-2.3904-4.8-5.9808-5.4l-11.3808-1.7904c-3-0.6-6.5904-3.5904-6.5904-6.5904l-1.8-11.3808c-0.6-2.9904-2.9904-5.9904-5.3904-5.9904-2.3904 0-4.7904 2.4-5.3808 5.9904l-1.8 11.3808c-0.6 3-3.5904 6.5904-6.5904 6.5904l-11.3808 1.7904c-2.9904 0.6-5.9808 3-5.9808 5.4 0 2.3904 2.3904 4.7904 5.9808 5.3904l11.3808 1.7904c3 0.6 6.5904 3.5904 6.5904 6.5808l1.8 11.3904c0.5904 2.9904 2.9904 5.9808 5.3808 5.9808 2.4 0 4.7904-2.3904 5.3904-5.9808l1.8-12.5808c0.6-2.9904 3.5904-5.9904 6.5904-6.5904l10.7808-0.5904c3.5904-0.6 6.5808-3 6.5808-5.3904z m288.6672-411.4416c0-2.3904-2.3904-4.7904-5.9904-5.3904l-11.3808-1.7952c-2.9904-0.6-6.5808-3.6-6.5808-6.5904l-1.8-11.376c-0.6-2.9952-2.9904-5.9952-5.3808-5.9952-2.4 0-4.8 2.4-5.4 5.9952l-1.8 11.376c-0.5904 2.9904-3.5904 6.5904-6.5808 6.5904l-11.3808 1.7952c-2.9904 0.6-5.9808 3-5.9808 5.3904s2.3904 4.7904 5.9808 5.3904l11.3808 1.7952c2.9904 0.6 6.5808 3.5904 6.5808 6.5856l1.8 11.376c0.6 3 3 5.9904 5.4 5.9904 2.3904 0 4.7808-2.3904 5.3808-5.9904l1.8-12.5712c0.6-3 3.5904-5.9904 6.5808-6.5904l10.7808-0.5952c4.2-0.5952 6.5904-2.9952 6.5904-5.3904z m2.4 83.8416H497.3312c-3.5904 0-5.9904-2.4-5.9904-5.9904s2.4-5.9856 5.9904-5.9856h77.8608c3.5904 0 5.9904 2.3952 5.9904 5.9856s-2.4 5.9904-5.9904 5.9904z m65.2752 233.568c-2.4 0-5.3904-1.7904-5.9904-4.1904-6.5904-16.7616-17.9616-31.7424-32.9328-44.9136-2.4-2.4-3-5.9904 0-8.9808 2.3904-2.4 6.5808-2.4 9.5808 0 16.7616 14.3712 28.7424 31.1424 36.5232 49.704 1.2 3-0.6 6.5904-3.5904 7.7808-1.7904 0.6-2.9904 0.6-3.5904 0.6z m-52.704-59.8896a4.6224 4.6224 0 0 1-2.9904-1.1904c-10.1808-7.7904-17.9712-11.3808-17.9712-11.3808-2.9904-1.2096-4.1904-4.8-2.9904-7.7904 1.1904-2.9904 4.7904-4.7904 7.1904-2.9904 0.6 0 8.9808 4.1904 20.352 12.5712 2.4 1.8 2.9904 5.9904 1.2 8.3904-1.8 1.7904-3.5904 2.3904-4.7904 2.3904z m39.5232 425.2176H376.3568c-3.5904 0-5.9904-2.4-5.9904-5.9904s2.4-5.9904 5.9904-5.9904h250.3296c3.6 0 5.9904 2.4 5.9904 5.9904s-2.3904 5.9904-5.3904 5.9904z m0 0" fill="#FFFFFF" /><path d="M653.0384 826.7072H533.264v-4.7904c25.152-2.3904 41.9232-23.352 41.9232-47.304 0-37.7328-44.3232-67.6896-46.1136-68.88-1.8-1.2-4.7904-1.2-6.5904 0-1.7904 1.1904-49.104 31.1424-49.104 68.88 0 22.752 23.952 43.7136 47.904 46.704v5.3904H347.6096V311.6624h125.7648v73.0656c-61.0896 22.1616-101.8128 80.2464-101.8128 145.536 0 85.0416 68.28 158.7024 153.9072 158.7024 85.0512 0 151.5168-73.6608 151.5168-158.7024 0-65.2896-40.7232-123.3744-101.8032-145.536V311.6624h35.3328c10.7808 0 18.5616-7.7856 18.5616-17.9616 0-10.1856-7.7808-17.9664-18.5616-17.9664h-10.7808c2.9904-4.1952 5.3904-9.5856 5.3904-15.5712 0-14.376-11.9808-26.3472-26.952-26.3472H476.3696c-14.9712 0-26.9424 11.9712-26.9424 26.3472 0 5.9856 1.7904 11.376 5.3808 15.5712H347.6096v-129.36c0-10.176-7.7904-20.3616-17.9712-20.3616s-17.9616 9.5856-17.9616 20.3616v129.36H275.744c-10.7808 0-17.9712 7.7808-17.9712 17.9664 0 10.176 7.1904 17.9616 17.9712 17.9616h35.9328v515.0496H275.744c-3.5904 0-5.9904 2.3904-5.9904 5.9904v47.904c0 3.6 2.4 5.9904 5.9904 5.9904h377.2992c3.5904 0 5.9904-2.3904 5.9904-5.9904v-47.904c-0.0048-3.6-2.4048-5.9952-5.9952-5.9952z m-166.488-52.0944c0-26.3616 29.3424-49.7136 38.9232-56.904 10.1808 7.1904 38.9232 30.5424 38.9232 56.904 0 16.7616-16.7616 35.3232-38.9232 35.3232-22.152 0-38.9232-18.5616-38.9232-35.3232z m178.4688-244.3536c0 78.4512-61.0896 146.7216-139.5456 146.7216-79.0512 0-141.9264-68.2704-141.9264-146.7216 0-4.8 0-8.9904 0.5904-13.7712 17.3712-7.7904 40.1232-19.1712 71.2704-19.1712 28.752 0 55.104 11.9808 78.4608 20.3616 22.752 8.9808 44.3136 15.5808 71.2704 15.5808 25.752 0 46.1136-6.6 59.2896-16.1808 0.5904 4.1904 0.5904 8.3808 0.5904 13.1808z m-94.6176-135.9504c49.704 16.7664 83.2416 58.6896 92.2224 108.9984-11.3712 9.5808-31.1328 17.9616-57.4896 17.9616-24.552 0-44.3232-5.9808-67.08-14.3712-23.952-8.9808-51.504-21.5616-82.6512-21.5616-29.3424 0-51.4992 9.5904-69.4704 17.3712 9.5808-49.704 44.3136-91.632 94.032-107.7984 2.3904-0.6 5.3904-3 5.3904-5.3904v-77.856h77.8512v77.2608c0 2.3952 4.7952 4.7856 7.1952 5.3856z m-94.032-148.5264h101.8128c8.3904 0 14.9712 6.5904 14.9712 14.376s-6.5808 15.5712-14.9712 15.5712H476.3696c-8.3808 0-14.9712-7.7856-14.9712-15.5712s6.5904-14.376 14.9712-14.376zM323.648 146.3696c0-1.2 0.6-8.3856 5.9904-8.3856 3.5904 0 6.5904 4.7904 6.5904 8.3856v129.36H323.648v-129.36z m-47.904 153.3168c-3.5904 0-5.9904-1.8-5.9904-5.9856 0-4.1904 2.4-5.9904 5.9904-5.9904h334.7808c3.5904 0 6.5808 1.8 6.5808 5.9904 0 4.1856-2.9904 5.9856-6.5808 5.9856H275.744z m60.4848 11.976v515.0496H323.648V311.6624h12.5808z m310.8192 562.9632H281.7344v-35.9328h365.3136v35.9328z m0 0" fill="#0C508E" /></svg>