<?xml version="1.0" standalone="no"?><!DOCTYPE svg PUBLIC "-//W3C//DTD SVG 1.1//EN" "http://www.w3.org/Graphics/SVG/1.1/DTD/svg11.dtd"><svg class="icon" width="200px" height="200.00px" viewBox="0 0 1024 1024" version="1.1" xmlns="http://www.w3.org/2000/svg"><path d="M798.875 710.56901042c-14.23828125 0-21.62109375-3.69140625-27.94921875-6.85546875-5.80078125-3.1640625-11.07421875-5.2734375-22.67578125-5.2734375-11.07421875 0-16.34765625 2.63671875-22.67578125 5.2734375-6.328125 3.1640625-13.7109375 6.85546875-27.94921875 6.85546875-14.23828125 0-21.09375-3.69140625-27.94921875-6.85546875-5.80078125-3.1640625-11.07421875-5.2734375-22.67578125-5.2734375-11.07421875 0-16.34765625 2.63671875-22.67578125 5.2734375-6.328125 3.1640625-13.7109375 6.85546875-27.94921875 6.85546875-12.12890625 0-22.1484375-5.80078125-30.5859375-10.546875-13.18359375-7.91015625-15.8203125-7.91015625-19.51171875-1.58203125-1.58203125 3.1640625-5.80078125 3.69140625-8.4375 2.109375-3.1640625-1.58203125-3.69140625-5.80078125-2.109375-8.4375 10.546875-17.9296875 25.83984375-8.96484375 36.38671875-3.1640625 7.91015625 4.21875 15.8203125 8.96484375 24.2578125 8.96484375 11.07421875 0 16.34765625-2.63671875 22.67578125-5.2734375 6.328125-3.1640625 13.7109375-6.85546875 27.94921875-6.85546875 14.23828125 0 21.09375 3.69140625 27.94921875 6.85546875 5.80078125 3.1640625 11.07421875 5.2734375 22.67578125 5.2734375 11.07421875 0 16.34765625-2.63671875 22.67578125-5.2734375 6.328125-3.1640625 13.7109375-6.85546875 27.94921875-6.85546875 14.23828125 0 21.62109375 3.69140625 27.94921875 6.85546875 5.80078125 3.1640625 11.07421875 5.2734375 22.67578125 5.2734375 8.96484375 0 16.875-4.74609375 24.2578125-8.96484375 11.07421875-6.328125 25.83984375-14.765625 36.38671875 3.1640625 1.58203125 3.1640625 1.0546875 6.85546875-2.109375 8.4375-3.1640625 1.58203125-6.85546875 1.0546875-8.4375-2.109375-3.69140625-6.328125-6.328125-6.328125-19.51171875 1.58203125-8.4375 4.21875-18.45703125 10.546875-30.5859375 10.546875zM265.73046875 701.07682292H264.1484375c-3.69140625 0-6.328125-2.63671875-6.328125-6.328125s2.63671875-6.328125 6.328125-6.328125h1.0546875c3.69140625 0 6.328125 2.63671875 6.328125 6.328125s-2.63671875 6.328125-5.80078125 6.328125zM296.84375 788.08854167H295.7890625c-3.69140625 0-6.328125-2.63671875-6.328125-6.328125s2.63671875-6.328125 6.328125-6.328125h1.0546875c3.69140625 0 6.328125 2.63671875 6.328125 6.328125s-3.1640625 6.328125-6.328125 6.328125zM292.625 737.99088542h-1.0546875c-3.69140625 0-6.328125-2.63671875-6.328125-6.328125s2.63671875-6.328125 6.328125-6.328125h1.0546875c3.69140625 0 6.328125 2.63671875 6.328125 6.328125s-3.1640625 6.328125-6.328125 6.328125zM227.76171875 724.80729167h-1.0546875c-3.69140625 0-6.328125-2.63671875-6.328125-6.328125s2.63671875-6.328125 6.328125-6.328125h1.0546875c3.69140625 0 6.328125 2.63671875 6.328125 6.328125s-3.1640625 6.328125-6.328125 6.328125zM255.18359375 756.97526042H253.6015625c-3.69140625 0-6.328125-2.63671875-6.328125-6.328125s2.63671875-6.328125 6.328125-6.328125h1.0546875c3.69140625 0 6.328125 2.63671875 6.328125 6.328125 0.52734375 3.69140625-2.63671875 6.328125-5.80078125 6.328125zM270.4765625 826.05729167H269.421875c-3.69140625 0-6.328125-2.63671875-6.328125-6.328125s2.63671875-6.328125 6.328125-6.328125h1.0546875c3.69140625 0 6.328125 2.63671875 6.328125 6.328125s-2.63671875 6.328125-6.328125 6.328125zM230.92578125 792.30729167c-3.1640625 0-5.80078125-2.63671875-6.328125-5.80078125-0.52734375-3.69140625 2.109375-6.328125 5.80078125-6.85546875h1.0546875c3.1640625 0 6.328125 2.109375 6.85546875 5.80078125 0.52734375 3.69140625-2.109375 6.328125-5.80078125 6.85546875H230.92578125zM308.4453125 690.00260417h-1.58203125c-2.109375-0.52734375-3.69140625-2.109375-4.21875-4.21875-3.69140625-11.07421875-13.7109375-18.45703125-25.3125-18.45703125h-3.1640625c-2.63671875 0.52734375-4.74609375-1.0546875-6.328125-3.1640625-4.74609375-8.96484375-13.7109375-14.23828125-23.73046875-14.23828125-14.765625 0-26.89453125 12.12890625-26.89453125 26.89453125 0 1.58203125-0.52734375 3.69140625-2.109375 4.74609375-1.58203125 1.0546875-3.1640625 2.109375-4.74609375 1.58203125-3.1640625-0.52734375-6.85546875-0.52734375-10.01953125 0.52734375-3.1640625 1.0546875-6.85546875-1.0546875-7.3828125-4.74609375-1.0546875-3.1640625 1.0546875-6.85546875 4.74609375-7.3828125 2.63671875-0.52734375 5.2734375-1.0546875 8.4375-1.0546875 3.1640625-18.45703125 18.984375-33.22265625 38.49609375-33.22265625 13.18359375 0 25.3125 6.328125 32.6953125 17.40234375 14.23828125 0 26.89453125 7.91015625 33.75 19.51171875 3.69140625-2.109375 7.91015625-3.1640625 12.12890625-3.69140625 3.1640625-0.52734375 6.328125 2.109375 6.85546875 5.2734375 0.52734375 3.1640625-2.109375 6.328125-5.2734375 6.85546875-4.74609375 0.52734375-8.96484375 2.63671875-12.12890625 5.2734375-1.58203125 1.58203125-3.1640625 2.109375-4.21875 2.109375z" fill="#00ABE0" /><path d="M240.9453125 475.90104167c-12.12890625 0-21.62109375-10.01953125-21.62109375-21.62109375 0-12.12890625 10.01953125-21.62109375 21.62109375-21.62109375s21.62109375 10.01953125 21.62109375 21.62109375c0 12.12890625-9.4921875 21.62109375-21.62109375 21.62109375z m0-31.11328125c-5.2734375 0-9.4921875 4.21875-9.4921875 9.4921875s4.21875 9.4921875 9.4921875 9.4921875 9.4921875-4.21875 9.4921875-9.4921875-4.21875-9.4921875-9.4921875-9.4921875zM281.55078125 621.44791667c-12.12890625 0-21.62109375-10.01953125-21.62109375-21.62109375 0-12.12890625 10.01953125-21.62109375 21.62109375-21.62109375s21.62109375 10.01953125 21.62109375 21.62109375c0 11.6015625-10.01953125 21.62109375-21.62109375 21.62109375z m0-31.640625c-5.2734375 0-9.4921875 4.21875-9.4921875 9.4921875s4.21875 9.4921875 9.4921875 9.4921875 9.4921875-4.21875 9.4921875-9.4921875-4.74609375-9.4921875-9.4921875-9.4921875zM239.36328125 560.80338542c-8.4375 0-15.8203125-6.85546875-15.8203125-15.8203125 0-8.4375 6.85546875-15.8203125 15.8203125-15.8203125 8.4375 0 15.8203125 6.85546875 15.8203125 15.8203125-0.52734375 8.96484375-7.3828125 15.8203125-15.8203125 15.8203125z m0-18.45703125c-1.58203125 0-3.1640625 1.58203125-3.1640625 3.1640625s1.58203125 3.1640625 3.1640625 3.1640625 3.1640625-1.58203125 3.1640625-3.1640625c-0.52734375-2.109375-1.58203125-3.1640625-3.1640625-3.1640625zM285.2421875 514.92447917c-8.4375 0-15.8203125-6.85546875-15.8203125-15.8203125 0-8.4375 6.85546875-15.8203125 15.8203125-15.8203125s15.8203125 6.85546875 15.8203125 15.8203125-7.3828125 15.8203125-15.8203125 15.8203125z m0-18.45703125c-1.58203125 0-3.1640625 1.58203125-3.1640625 3.1640625s1.58203125 3.1640625 3.1640625 3.1640625 3.1640625-1.58203125 3.1640625-3.1640625c0-2.109375-1.58203125-3.1640625-3.1640625-3.1640625zM698.15234375 888.28385417c-50.09765625 0-97.55859375-18.984375-133.9453125-54.31640625-38.49609375-36.9140625-59.0625-86.484375-59.0625-139.21875 0-78.046875 46.40625-148.18359375 118.125-178.2421875 12.12890625-5.2734375 20.0390625-17.40234375 20.0390625-30.5859375V351.97526042c0-3.69140625 2.63671875-6.328125 6.328125-6.328125s6.328125 2.63671875 6.328125 6.328125v134.47265625c0 18.45703125-11.07421875 34.8046875-27.94921875 42.1875-66.97265625 28.4765625-110.7421875 93.8671875-110.7421875 166.640625 0 49.5703125 19.51171875 95.9765625 55.37109375 130.25390625s82.79296875 52.20703125 132.36328125 50.625c94.39453125-3.69140625 170.859375-80.68359375 174.0234375-175.078125 2.109375-75.41015625-41.1328125-143.4375-110.7421875-172.44140625-16.875-7.3828125-27.94921875-23.73046875-27.94921875-42.1875V351.97526042c0-3.69140625 2.63671875-6.328125 6.328125-6.328125s6.328125 2.63671875 6.328125 6.328125v134.47265625c0 13.7109375 7.91015625 25.3125 20.0390625 30.5859375 74.35546875 31.11328125 120.76171875 103.88671875 118.125 184.5703125-3.1640625 101.25-84.90234375 183.515625-185.625 187.20703125-2.109375-0.52734375-4.74609375-0.52734375-7.3828125-0.52734375z" fill="#211D1C" /><path d="M698.15234375 857.17057292c-89.6484375 0-162.421875-72.7734375-162.421875-162.421875 0-3.69140625 2.63671875-6.328125 6.328125-6.328125s6.328125 2.63671875 6.328125 6.328125c0 82.79296875 66.97265625 149.765625 149.765625 149.765625s149.765625-66.97265625 149.765625-149.765625c0-3.69140625 2.63671875-6.328125 6.328125-6.328125s6.328125 2.63671875 6.328125 6.328125c0 89.6484375-72.7734375 162.421875-162.421875 162.421875z" fill="#00ABE0" /><path d="M760.37890625 357.77604167h-124.98046875c-3.69140625 0-6.328125-2.63671875-6.328125-6.328125v-31.11328125c0-3.69140625 2.63671875-6.328125 6.328125-6.328125h124.98046875c3.69140625 0 6.328125 2.63671875 6.328125 6.328125v31.11328125c0 3.69140625-2.63671875 6.328125-6.328125 6.328125z m-118.125-12.12890625H754.578125v-18.984375h-112.32421875v18.984375z" fill="#211D1C" /><path d="M709.2265625 320.33463542h-22.1484375V184.80729167h-51.15234375c-4.74609375 0-8.4375-2.63671875-10.546875-6.85546875-1.0546875-2.63671875-2.63671875-6.85546875-3.69140625-9.4921875-1.58203125 2.63671875-2.63671875 6.85546875-3.69140625 9.4921875-4.21875 11.07421875-10.01953125 25.83984375-24.2578125 25.83984375-14.765625 0-20.56640625-14.765625-24.2578125-25.83984375-1.0546875-2.63671875-2.63671875-6.85546875-3.69140625-9.4921875-1.58203125 2.63671875-2.63671875 6.85546875-3.69140625 9.4921875-4.21875 11.07421875-10.01953125 25.83984375-24.2578125 25.83984375s-20.56640625-14.765625-24.2578125-25.83984375c-1.0546875-2.63671875-2.63671875-6.85546875-3.69140625-9.4921875-1.58203125 2.63671875-2.63671875 6.85546875-3.69140625 9.4921875-4.21875 11.07421875-10.01953125 25.83984375-24.2578125 25.83984375s-20.56640625-14.765625-24.2578125-25.83984375c-1.0546875-2.63671875-2.63671875-6.85546875-3.69140625-9.4921875-1.58203125 2.63671875-2.63671875 6.85546875-3.69140625 9.4921875-4.21875 11.07421875-10.01953125 25.83984375-24.2578125 25.83984375-14.765625 0-20.56640625-14.765625-24.2578125-25.83984375-1.0546875-2.63671875-2.63671875-6.85546875-3.69140625-9.4921875-1.58203125 2.63671875-2.63671875 6.85546875-3.69140625 9.4921875-4.21875 11.07421875-10.01953125 25.83984375-24.2578125 25.83984375-14.765625 0-20.56640625-14.765625-24.2578125-25.83984375-1.0546875-2.63671875-2.63671875-6.85546875-3.69140625-9.4921875-1.58203125 2.63671875-2.63671875 6.85546875-3.69140625 9.4921875-1.58203125 4.21875-5.80078125 6.85546875-10.546875 6.85546875h-51.15234375v113.90625h-22.1484375V173.73307292c0-6.328125 4.74609375-11.07421875 11.07421875-11.07421875h54.84375c4.21875-9.4921875 10.01953125-18.984375 21.62109375-18.984375 14.765625 0 20.56640625 14.765625 24.2578125 25.83984375 1.0546875 2.63671875 2.63671875 6.85546875 3.69140625 9.4921875 1.58203125-2.63671875 2.63671875-6.85546875 3.69140625-9.4921875 4.21875-11.07421875 10.01953125-25.83984375 24.2578125-25.83984375 14.765625 0 20.56640625 14.765625 24.2578125 25.83984375 1.0546875 2.63671875 2.63671875 6.85546875 3.69140625 9.4921875 1.58203125-2.63671875 2.63671875-6.85546875 3.69140625-9.4921875 4.21875-11.07421875 10.01953125-25.83984375 24.2578125-25.83984375 14.765625 0 20.56640625 14.765625 24.2578125 25.83984375 1.0546875 2.63671875 2.63671875 6.85546875 3.69140625 9.4921875 1.58203125-2.63671875 2.63671875-6.85546875 3.69140625-9.4921875 4.21875-11.07421875 10.01953125-25.83984375 24.2578125-25.83984375 14.765625 0 20.56640625 14.765625 24.2578125 25.83984375 1.0546875 2.63671875 2.63671875 6.85546875 3.69140625 9.4921875 1.58203125-2.63671875 2.63671875-6.85546875 3.69140625-9.4921875 4.21875-11.07421875 10.01953125-25.83984375 24.2578125-25.83984375 14.765625 0 20.56640625 14.765625 24.2578125 25.83984375 1.0546875 2.63671875 2.63671875 6.85546875 3.69140625 9.4921875 1.58203125-2.63671875 2.63671875-6.85546875 3.69140625-9.4921875 4.21875-11.07421875 10.01953125-25.83984375 24.2578125-25.83984375 11.6015625 0 17.40234375 9.4921875 21.62109375 18.984375h54.84375c6.328125 0 11.07421875 4.74609375 11.07421875 11.07421875v146.6015625zM698.15234375 381.50651042c-3.69140625 0-6.328125-2.63671875-6.328125-6.328125v-1.0546875c0-3.69140625 2.63671875-6.328125 6.328125-6.328125s6.328125 2.63671875 6.328125 6.328125v1.0546875c0 3.1640625-2.63671875 6.328125-6.328125 6.328125zM698.15234375 621.44791667c-3.69140625 0-6.328125-2.63671875-6.328125-6.328125v-2.63671875c0-3.69140625 2.63671875-6.328125 6.328125-6.328125s6.328125 2.63671875 6.328125 6.328125v2.63671875c0 3.69140625-2.63671875 6.328125-6.328125 6.328125z m0-18.45703125c-3.69140625 0-6.328125-2.63671875-6.328125-6.328125v-2.63671875c0-3.69140625 2.63671875-6.328125 6.328125-6.328125s6.328125 2.63671875 6.328125 6.328125v2.63671875c0 3.69140625-2.63671875 6.328125-6.328125 6.328125z m0-18.45703125c-3.69140625 0-6.328125-2.63671875-6.328125-6.328125v-2.63671875c0-3.69140625 2.63671875-6.328125 6.328125-6.328125s6.328125 2.63671875 6.328125 6.328125v2.63671875c0 3.69140625-2.63671875 6.328125-6.328125 6.328125z m0-18.45703125c-3.69140625 0-6.328125-2.63671875-6.328125-6.328125v-2.63671875c0-3.69140625 2.63671875-6.328125 6.328125-6.328125s6.328125 2.63671875 6.328125 6.328125v2.63671875c0 3.69140625-2.63671875 6.328125-6.328125 6.328125z m0-18.45703125c-3.69140625 0-6.328125-2.63671875-6.328125-6.328125v-2.63671875c0-3.69140625 2.63671875-6.328125 6.328125-6.328125s6.328125 2.63671875 6.328125 6.328125v2.63671875c0 3.69140625-2.63671875 6.328125-6.328125 6.328125z m0-18.45703125c-3.69140625 0-6.328125-2.63671875-6.328125-6.328125v-2.63671875c0-3.69140625 2.63671875-6.328125 6.328125-6.328125s6.328125 2.63671875 6.328125 6.328125v2.63671875c0 3.69140625-2.63671875 6.328125-6.328125 6.328125z m0-18.45703125c-3.69140625 0-6.328125-2.63671875-6.328125-6.328125v-2.63671875c0-3.69140625 2.63671875-6.328125 6.328125-6.328125s6.328125 2.63671875 6.328125 6.328125v2.63671875c0 3.69140625-2.63671875 6.328125-6.328125 6.328125z m0-18.45703125c-3.69140625 0-6.328125-2.63671875-6.328125-6.328125v-2.63671875c0-3.69140625 2.63671875-6.328125 6.328125-6.328125s6.328125 2.63671875 6.328125 6.328125v2.63671875c0 3.69140625-2.63671875 6.328125-6.328125 6.328125z m0-18.45703125c-3.69140625 0-6.328125-2.63671875-6.328125-6.328125v-2.63671875c0-3.69140625 2.63671875-6.328125 6.328125-6.328125s6.328125 2.63671875 6.328125 6.328125v2.63671875c0 3.69140625-2.63671875 6.328125-6.328125 6.328125z m0-18.45703125c-3.69140625 0-6.328125-2.63671875-6.328125-6.328125v-2.63671875c0-3.69140625 2.63671875-6.328125 6.328125-6.328125s6.328125 2.63671875 6.328125 6.328125v2.63671875c0 3.1640625-2.63671875 6.328125-6.328125 6.328125z m0-18.45703125c-3.69140625 0-6.328125-2.63671875-6.328125-6.328125v-2.63671875c0-3.69140625 2.63671875-6.328125 6.328125-6.328125s6.328125 2.63671875 6.328125 6.328125v2.63671875c0 3.1640625-2.63671875 6.328125-6.328125 6.328125z m0-18.45703125c-3.69140625 0-6.328125-2.63671875-6.328125-6.328125v-2.63671875c0-3.69140625 2.63671875-6.328125 6.328125-6.328125s6.328125 2.63671875 6.328125 6.328125v2.63671875c0 3.1640625-2.63671875 6.328125-6.328125 6.328125z m0-18.45703125c-3.69140625 0-6.328125-2.63671875-6.328125-6.328125v-2.63671875c0-3.69140625 2.63671875-6.328125 6.328125-6.328125s6.328125 2.63671875 6.328125 6.328125v2.63671875c0 3.1640625-2.63671875 6.328125-6.328125 6.328125zM698.15234375 638.85026042c-3.69140625 0-6.328125-2.63671875-6.328125-6.328125v-1.0546875c0-3.69140625 2.63671875-6.328125 6.328125-6.328125s6.328125 2.63671875 6.328125 6.328125v1.0546875c0 3.69140625-2.63671875 6.328125-6.328125 6.328125z" fill="#211D1C" /><path d="M372.78125 304.51432292H149.71484375c-3.69140625 0-6.328125-2.63671875-6.328125-6.328125s2.63671875-6.328125 6.328125-6.328125h223.06640625c3.69140625 0 6.328125 2.63671875 6.328125 6.328125s-2.63671875 6.328125-6.328125 6.328125zM372.78125 392.58072917H149.71484375c-3.69140625 0-6.328125-2.63671875-6.328125-6.328125s2.63671875-6.328125 6.328125-6.328125h223.06640625c3.69140625 0 6.328125 2.63671875 6.328125 6.328125s-2.63671875 6.328125-6.328125 6.328125zM372.78125 326.66276042H149.71484375c-3.69140625 0-6.328125-2.63671875-6.328125-6.328125s2.63671875-6.328125 6.328125-6.328125h223.06640625c3.69140625 0 6.328125 2.63671875 6.328125 6.328125s-2.63671875 6.328125-6.328125 6.328125zM372.78125 348.81119792H149.71484375c-3.69140625 0-6.328125-2.63671875-6.328125-6.328125s2.63671875-6.328125 6.328125-6.328125h223.06640625c3.69140625 0 6.328125 2.63671875 6.328125 6.328125s-2.63671875 6.328125-6.328125 6.328125zM372.78125 370.95963542H149.71484375c-3.69140625 0-6.328125-2.63671875-6.328125-6.328125s2.63671875-6.328125 6.328125-6.328125h223.06640625c3.69140625 0 6.328125 2.63671875 6.328125 6.328125s-2.63671875 6.328125-6.328125 6.328125zM372.78125 866.66276042H149.71484375c-3.69140625 0-6.328125-2.63671875-6.328125-6.328125 0-21.09375 16.875-37.96875 37.96875-37.96875h11.6015625V408.40104167c0-3.69140625 2.63671875-6.328125 6.328125-6.328125h124.98046875c3.69140625 0 6.328125 2.63671875 6.328125 6.328125v413.96484375h11.6015625c21.09375 0 37.96875 16.875 37.96875 37.96875-1.0546875 3.1640625-3.69140625 6.328125-7.3828125 6.328125z m-216.2109375-12.65625h209.35546875c-2.63671875-11.07421875-12.65625-18.984375-24.78515625-18.984375h-17.40234375c-3.69140625 0-6.328125-2.63671875-6.328125-6.328125V414.72916667H205.0859375v413.96484375c0 3.69140625-2.63671875 6.328125-6.328125 6.328125h-17.40234375c-11.6015625 0-21.62109375 7.91015625-24.78515625 18.984375z" fill="#211D1C" /></svg>