<?xml version="1.0" standalone="no"?><!DOCTYPE svg PUBLIC "-//W3C//DTD SVG 1.1//EN" "http://www.w3.org/Graphics/SVG/1.1/DTD/svg11.dtd"><svg class="icon" width="200px" height="200.00px" viewBox="0 0 1024 1024" version="1.1" xmlns="http://www.w3.org/2000/svg"><path fill="#2c2c2c" d="M624.43891578 647.34069235c-37.34751258 0-67.64832517 30.30081259-67.64832517 67.64832515s30.30081259 67.64832517 67.64832517 67.64832517 67.64832517-30.30081259 67.64832516-67.64832517-30.30081259-67.64832517-67.64832516-67.64832515z m0 90.19776712c-12.41980952 0-22.54944197-10.12963172-22.54944197-22.54944197s10.12963172-22.54944197 22.54944197-22.54944197c12.41980952 0 22.54944197 10.12963172 22.54944123 22.54944197S636.8587253 737.53845947 624.43891578 737.53845947z m0 0"  /><path fill="#2c2c2c" d="M862.70547735 753.12928401l0.61658665-1.05700452L646.90027373 376.39505636V196.35185742h15.06232191c16.55974651 0 30.03656127-10.12963172 30.03656128-22.54944197 0-12.41980952-13.47681477-22.54944197-30.03656128-22.54944124H361.3327337C344.77298792 151.25297421 331.29617314 161.38260594 331.29617314 173.80241545c0 12.41980952 13.47681477 22.54944197 30.03656056 22.54944197h15.06232266v180.48361755L163.67278373 746.96342126l0.44041862 0.79275394c-7.57520333 12.68406083-13.21256345 27.30596487-13.21256346 43.68954336 0 45.01079992 32.94332499 81.38939125 73.63802061 81.38939124h582.05746499c36.81901068-4.40418758 65.88664999-39.46152307 65.88664999-81.38939124 0-14.09340141-4.13993627-26.77746224-9.77729713-38.31643455zM601.88947381 196.35185742V376.39505636c0 7.92753793 2.1140105 15.67890856 5.98969545 22.54944195l39.19727176 68.08874379H376.57122365l38.84493716-67.64832517c3.87568495-6.87053268 5.98969546-14.62190332 5.98969545-22.54944196V196.35185742h180.48361755z m201.18330033 631.38436845H224.5386595c-15.50274127 0-28.53913743-16.6478298-28.53913669-36.37859133 0-6.25394678 2.20209379-12.86022814 6.78244866-20.61159876 1.40933986-2.37826108 2.55442912-5.02077423 3.61143437-7.66328735l144.36927752-251.03870643h322.29846596l146.65945533 254.73822481c0.70466993 2.20209379 1.58550787 4.40418758 2.6425124 6.51819736 3.43526634 6.95861669 5.02077423 12.68406083 5.02077422 18.14525439-0.08808401 19.55459423-12.33172624 33.55991164-24.31111713 36.29050731z m0 0"  /><path fill="#2c2c2c" d="M466.59282348 557.14292521c-24.92770306 0-45.09888321 20.17118016-45.09888393 45.09888392 0 24.92770306 20.17118016 45.09888321 45.09888393 45.09888322 24.92770306 0 45.09888321-20.17118016 45.0988832-45.09888322-0.08808401-24.92770306-20.17118016-45.09888321-45.0988832-45.09888392z m0 0"  /></svg>