<?xml version="1.0" standalone="no"?><!DOCTYPE svg PUBLIC "-//W3C//DTD SVG 1.1//EN" "http://www.w3.org/Graphics/SVG/1.1/DTD/svg11.dtd"><svg class="icon" width="200px" height="200.00px" viewBox="0 0 1024 1024" version="1.1" xmlns="http://www.w3.org/2000/svg"><path fill="#2c2c2c" d="M159.00695143 327.24764025c0-17.17791392 1.3865013-32.32034303 4.16029491-45.45020976 2.77379286-13.11880102 6.93408777-23.9776202 12.48088401-32.56697227 5.54758646-8.58935209 11.45879371-15.85860337 17.75101169-21.83067711 6.28431323-5.96100723 12.94094301-10.61298017 19.96988777-13.95750005 1.84577007-0.95094679 3.50973015-1.66633081 4.99187945-2.14694309 1.47345431-0.46954502 3.13741362-0.95094679 4.99266971-1.43155908 1.47345431-0.46954502 3.05046138-0.95094679 4.71521091-1.43155906 1.66396008-0.46954502 3.23306163-0.95094679 4.71442069-1.43155907 3.32791938-0.95094679 6.46612402-1.54380681 9.43042262-1.78964581 2.95560362-0.23477252 5.72939647-0.35808753 8.32058907-0.35808752l43.82261247-1.43155908 0 62.27003696-34.94631637 1e-8c-11.09438193 0.96201404-20.24655631 3.22120488-27.45810209 6.79970626s-12.29907323 8.94664936-15.25467685 16.10444237c-2.9642986 7.15779379-5.27012769 14.56063557-6.93408776 22.18797438-1.66396008 7.6384053-2.49633485 15.74635485-2.49633486 24.3357077 0 1.91217058 0 3.70181639 0 5.36814721 0 1.67739807 0 3.22041386 0 4.65197294 0 1.91217058 0 3.57850138 0 5.01006044s0 2.86311736 0 4.29467644c0 0.48061151 0 1.07347155 0 1.78964581 0 0.71617427 0 1.5548733 0 2.50502984 0 0.48061151 0 1.07347155 0 1.78964582 0 0.71538403 0 1.55408306 0 2.50502984l78.21401207-1.43155906 0 61.55465291-78.21401207 0 0 276.28055257L159.00695143 699.4370931 159.00695143 327.24764025z"  /><path fill="#2c2c2c" d="M324.02432764 417.07538004c4.24724717-26.00203852 10.26200715-49.4990472 18.0284697-70.50130151 7.7656723-20.99197807 15.89575562-40.08206257 24.40685045-57.26076674 8.50239908-17.17791392 17.37790492-32.44365727 26.62651755-45.80829729 3.69233038-5.24483297 7.29770854-10.13236865 10.81692392-14.67288408 3.50973015-4.52944894 7.11589777-8.94664936 10.81692392-13.24132502 3.32870962-4.29467643 6.656629-8.23126456 9.98533939-11.80976672 3.32791938-3.57850138 6.656629-7.03447878 9.98454915-10.37820765l26.07081053 32.92426877c-2.59119261 4.29467643-5.54679622 8.58935209-8.87550584 12.88402852-3.32791938 4.29467643-7.21075553 9.0699636-11.64850845 14.31479656-4.43775292 4.77528795-8.87550585 10.37820765-13.31325878 16.8198264-4.43775292 6.44161875-8.87550585 13.72193653-13.31325877 21.8306771-6.29221799 10.50152266-12.39472123 22.90414865-18.30513823 37.21894521-5.91990222 14.31479656-11.64850845 30.30778144-17.19609492 47.95603063-5.54758646 17.65852544-9.70709038 37.93511948-12.48088399 60.83926889-2.77379286 22.90414865-4.53261069 48.4358519-5.26933747 76.58562375 0 29.59239742 2.4955446 58.22199053 7.4882143 85.89035987 4.9926697 27.6794366 12.66348424 54.16287687 23.02034916 79.44874111 9.9853394 24.80525273 20.80147308 46.40036708 32.45077177 64.77506678 11.64850845 18.36284297 24.12939246 33.2823563 37.44265122 44.73482575l-22.18797437 45.09212301c-10.35765516-10.02012013-19.78728754-20.28687028-28.2896866-30.77732645-8.51188508-10.50152266-16.27755739-21.23781785-23.29859817-32.20888476-7.02894552-10.98292442-13.40811653-22.07651688-19.13751301-33.28235631-5.73730122-11.21690669-10.81692392-22.31128862-15.2538866-33.28235629-7.76646254-18.12965171-14.14563354-36.25772218-19.13751299-54.39685913-4.99187946-18.12965171-8.59804784-36.02294966-10.81692392-53.6814751-2.21887608-18.1288607-3.79667415-34.94947812-4.71521094-50.46106047-0.92723253-15.49972561-1.3865013-29.93862742-1.3865013-43.3024772l0-1.43234932C317.2728401 471.36078167 319.76917496 443.0876948 324.02432764 417.07538004z"  /><path fill="#2c2c2c" d="M495.69991412 355.87802439c10.72127593 0.96201404 21.16509307 2.98564213 31.34093823 6.08353201 10.16635915 3.10974738 19.87423977 7.76172031 29.12206214 13.95750005 9.61223262 6.20684624 18.0284697 14.31479656 25.239226 24.33570772 7.21154578 10.02012013 13.59071677 21.95320186 19.13751299 35.78738691 2.95560362-9.05810686 6.379171-17.17791392 10.26200715-24.33570771s8.40754208-13.35357353 13.58992654-18.60947299c5.1744797-5.24562322 10.53946592-9.77428114 16.08705161-13.59941254 5.54758646-3.8132739 11.09359168-7.15779379 16.64117816-10.02012013 5.1744797-2.38250585 10.16635915-4.40613393 14.97721885-6.08432225 4.80137368-1.66633081 9.61223262-2.73980235 14.42230207-3.22120487 4.43775292-0.95015653 8.59804784-1.66633081 12.480884-2.14694309 3.88283616-0.46954502 7.48900455-0.71538403 10.81692392-0.71538404l0 54.39685914c-11.09359168 2.39357234-21.45203784 6.20684624-31.06348023 11.4516792-9.62092838 5.2566897-18.67824423 12.41448349-27.18143431 21.47338059-8.13798807 9.0699636-14.33534906 20.39911881-18.58259622 33.99774032-4.25594293 13.59941254-6.379171 29.46908241-6.379171 47.59794311 0 13.84604178 1.10983355 26.12535353 3.32870961 36.86164871s5.54758646 20.1643463 9.98454916 28.27229584c4.43775292 7.6384053 9.23912662 14.20333907 14.42230208 19.68294376 5.1744797 5.49067197 10.53946592 10.14343515 16.08705161 13.95670905 4.06543717 2.86311736 7.94827331 5.13337469 11.64850847 6.80049651 3.69233038 1.67739807 7.39414679 2.98564213 11.09438191 3.93579866 3.69233038 0.96201404 6.93329753 1.67818831 9.70709038 2.14773333 2.77379286 0.48061151 5.07883169 0.71538403 6.93329753 0.71538403l0 60.8392689c-11.46669846 0-21.82356337-1.07347155-31.06348023-3.22041386-9.24782161-2.14773334-17.56920171-5.60371073-24.96176723-10.3789979-7.40205153-5.24483297-14.05868131-10.49045618-19.96988777-15.74635487-5.91990222-5.24562322-11.09438193-10.97106769-15.5313446-17.17791392-1.1090433-1.43155906-2.03706608-2.86311736-2.77379285-4.29467642-0.74542253-1.43155906-1.66396008-2.86311736-2.77379284-4.29467643-0.74542253-0.95094679-1.48214931-2.14773334-2.21887608-3.57850139-0.74542253-1.43234931-1.48214931-2.86311736-2.21966709-4.29467643-1.48214931-2.38250585-2.86865062-4.8875357-4.16029492-7.51588053-1.30033931-2.61727836-2.49633485-4.8875357-3.6061684-6.79970627-5.54679622 14.31479656-11.92596723 26.48265003-19.137513 36.50356119-7.21075553 10.02012013-15.6269926 17.89408819-25.23922599 23.61953266-9.24782161 6.20763726-18.95491198 10.62404666-29.12206216 13.24132502-10.17584515 2.62834486-20.6196623 3.93658891-31.34093823 3.9365889l0-62.27003694c10.34896016 0.96201404 19.96988777-0.95094679 28.84460339-5.72623472 8.87550585-4.76343043 16.82298892-11.68645171 23.85272469-20.75720555 7.39335654-9.53871838 13.39942076-19.32485702 18.0284697-29.34576739 4.61956293-10.02012013 8.04313107-20.7564153 10.2612169-32.20888477 0.36441101-1.90031307 0.64186979-3.8132739 0.83237479-5.72544447 0.18181-1.90110331 0.45926877-3.8132739 0.83237476-5.72623473 0-0.95015653 0-1.90110331 0-2.86311736 0-0.95015653 0.18181-1.90031307 0.55491677-2.86232712 0-0.95094679 0-1.90110331 0-2.86311735 0-0.95094679 0-1.90110331 0-2.86311736 0-2.38250585-0.095648-4.76422067-0.27824901-7.1577938-0.19050577-2.38250585-0.46796377-4.76422067-0.83158453-7.15779377-0.37310678-2.38250585-0.64977453-4.76343043-0.83237477-7.1577938-0.19050577-2.38250585-0.64977453-4.76343043-1.38729156-7.15779379-2.21887608-9.53950862-5.54758646-18.60947299-9.98454914-27.19803405-4.43775292-8.58935209-9.9853394-16.93207492-16.64117815-25.05109174-6.656629-8.10874057-14.42309232-14.9076566-23.29859816-20.39911881-8.87550585-5.47960548-18.85926398-9.41698463-29.95443692-11.80976672l0-1.43155906L495.69596136 355.87802439z"  /><path fill="#2c2c2c" d="M829.34873893 420.65388143c-4.62825869-28.38454436-11.74415646-54.03956262-21.35718008-76.94371128-9.24782161-22.90414865-19.137513-42.82186492-29.67697892-59.76500633-10.53946592-16.93207492-21.35638985-30.88878397-32.44998153-41.87170837-0.37310678-0.46954502-0.74542253-0.95094679-1.10983354-1.43155907-0.37231576-0.46954502-0.74463152-0.95015653-1.1090433-1.43155907-0.74463152 0-1.30033931-0.23477252-1.66316907-0.71617427-0.37310678-0.46954502-0.74542253-0.95094679-1.10983354-1.43155908-0.74463152-0.95015653-1.57700707-1.78964582-2.49554461-2.50502983-0.92802277-0.71538403-1.75960808-1.30824406-2.49633485-1.78964582l22.18797438-46.52368131c0.73751779 1.43155906 1.56910231 2.62834486 2.49633485 3.57850139 0.91853754 0.96201404 1.94141807 1.91217058 3.05046137 2.86311736 0.73672677 0.48061151 1.29164355 0.96201404 1.66396008 1.43155907 0.36362077 0.48061151 0.91853754 0.96122302 1.66396007 1.43155906 0.36362077 0.48061151 0.83158453 0.96122302 1.38650131 1.43155907 0.55491677 0.48061151 1.01418554 0.96201404 1.3865013 1.43155906 14.42230207 13.84525154 28.19482884 31.13541398 41.32627762 51.89182929 13.12196276 20.7564153 25.60284599 44.73403551 37.44265123 71.93365083 11.83110947 27.19882508 20.80068206 56.90188897 26.90318529 89.11077449 6.101713 32.20888476 9.1521736 66.68802761 9.1521736 103.4263613 0 5.25589945-0.09485776 10.62404666-0.277458 16.10444238-0.19050577 5.49067197-0.46796377 10.85881917-0.83237477 16.10444238-0.37310678 5.72544447-0.74542253 11.21690669-1.1090433 16.46173966-0.37310678 5.2566897-0.92802277 10.50152266-1.66396007 15.74714586-2.9642986 24.81631923-7.67951031 49.27534118-14.14563355 73.36520989-6.47402875 24.10014418-14.51715906 47.11575111-24.12939245 69.06974321-9.98454916 22.90414865-21.63305761 43.30326745-34.94631638 61.19735564-13.31325877 17.89329794-28.48098262 33.2823563-45.48657254 46.16559457l-21.6330576-39.36667854c17.37790492-16.7083689 32.17252276-34.71391537 44.37673899-54.03956263 12.20342523-19.32485702 21.99746862-39.72397505 29.39952015-61.1965654 7.39335654-22.42274688 13.03500975-44.96959825 16.91784591-67.63818413 3.88283616-22.65830964 5.82425423-45.68498228 5.82425424-69.07053347 0-0.95015653 0-1.90110331 0-2.86311736 0-0.95015653 0-1.90031307 0-2.86232711 0-0.95094679 0-1.90110331 0-2.86311737 0-0.95094679 0-1.90110331 0-2.86311736 0-0.46954502 0-0.95015653 0-1.43155907 0-0.47033527 0-0.95094679 0-1.43234931-0.37231576-0.46954502-0.55412654-0.95015653-0.55412655-1.43155907 0-0.47033527 0-0.95015653 0-1.43155905 0-0.95094679 0-1.90110331 0-2.86311737 0-0.95094679 0-1.90110331 0-2.86311736l0-1.43155907C836.28282672 479.94934351 833.96830186 449.04870205 829.34873893 420.65388143z"  /></svg>