<?xml version="1.0" standalone="no"?><!DOCTYPE svg PUBLIC "-//W3C//DTD SVG 1.1//EN" "http://www.w3.org/Graphics/SVG/1.1/DTD/svg11.dtd"><svg class="icon" width="200px" height="200.00px" viewBox="0 0 1024 1024" version="1.1" xmlns="http://www.w3.org/2000/svg"><path fill="#2c2c2c" d="M513.92 403.37216c-83.42016 0-151.296 68.32512-151.296 152.3136s67.86816 152.30976 151.296 152.30976 151.296-68.32704 151.296-152.30976-67.87008-152.3136-151.296-152.3136zM832.72832 324.032l-152.92224-37.632v-31.39584a52.71744 52.71744 0 0 0-52.3872-52.74048H384.80576a52.71552 52.71552 0 0 0-52.38336 52.74048v30.28032l-143.58528 39.97248 0.29184 0.11712a52.88256 52.88256 0 0 0-38.1024 50.7168v394.82688a52.71744 52.71744 0 0 0 52.38336 52.74048h621.01824a52.71744 52.71744 0 0 0 52.38528-52.74048V376.09088a52.82112 52.82112 0 0 0-44.08512-52.05888zM513.92 770.44928c-117.6288 0-213.32544-96.34368-213.32544-214.76736S396.2912 340.91648 513.92 340.91648s213.32544 96.34368 213.32544 214.76544S631.54688 770.44928 513.92 770.44928z m234.00192-342.31872a45.79968 45.79968 0 1 1 45.49056-45.79776 45.64416 45.64416 0 0 1-45.49056 45.79776z" /></svg>