<?xml version="1.0" standalone="no"?><!DOCTYPE svg PUBLIC "-//W3C//DTD SVG 1.1//EN" "http://www.w3.org/Graphics/SVG/1.1/DTD/svg11.dtd"><svg class="icon" width="200px" height="200.00px" viewBox="0 0 1024 1024" version="1.1" xmlns="http://www.w3.org/2000/svg"><path fill="#2c2c2c" d="M414.66799927 331.24057007h23.17428589v417.137146h-23.17428589z"  /><path fill="#2c2c2c" d="M215.36914062 530.53942872h417.137146v23.17428588h-417.13714599zM372.95428467 331.24057007L423.93771362 280.25714112l55.61828614 50.98342895zM632.50628662 488.82571411l55.61828614 50.98342896-55.61828614 50.98342896zM512 335.87542724l27.80914307-27.80914306c-4.63485718-9.26971435-9.26971435-9.26971435-9.26971435-13.90457153s-9.26971435-9.26971435-9.26971437-13.90457153c0 0 0-4.63485718-4.63485717-4.63485719s0-4.63485718-4.63485718-4.63485717l13.90457153-4.63485718c9.26971435 4.63485718 13.90457153 9.26971435 13.90457154 13.90457154s4.63485718 9.26971435 9.26971435 13.90457153l27.80914307-27.80914307 13.90457153 9.26971435c0 4.63485718-4.63485718 9.26971435-9.26971436 18.53942872s-9.26971435 9.26971435-13.90457152 13.90457153c4.63485718 0 4.63485718 4.63485718 9.26971435 4.63485718l9.26971435 9.26971435 13.90457154 9.26971436-13.90457154 18.53942871c-9.26971435-4.63485718-13.90457153-9.26971435-18.5394287-13.90457154l-13.90457154-13.90457153-9.26971436 9.26971436c-4.63485718 4.63485718-9.26971435 4.63485718-9.26971435 9.26971436 0 0-4.63485718 0-4.63485717 4.63485717 0 0-4.63485718 0-4.63485719 4.63485718L512 335.87542724zM794.72628784 493.46057128c-4.63485718 13.90457153-9.26971435 27.80914307-13.90457153 37.07885744l-13.90457154 27.80914305c-4.63485718 9.26971435-9.26971435 13.90457153-13.90457153 23.17428589s-9.26971435 9.26971435-13.90457153 18.53942872h-4.63485718s-4.63485718 0-4.63485718-4.63485718-4.63485718 0-4.63485717-4.63485718v-4.63485718c4.63485718-4.63485718 4.63485718-9.26971435 9.26971435-13.90457153 0-4.63485718 4.63485718-9.26971435 4.63485718-13.90457154l-13.90457153-13.90457153c-4.63485718-4.63485718-4.63485718-9.26971435-9.26971436-13.90457152-4.63485718-4.63485718-4.63485718-9.26971435-4.63485718-13.90457154 0-4.63485718-4.63485718-9.26971435-4.63485718-13.90457153l-4.63485717-9.26971437h4.63485717s4.63485718 0 9.26971436-4.63485717c4.63485718 0 4.63485718-4.63485718 9.26971436-4.63485718l4.63485717 9.26971436c0 4.63485718 4.63485718 9.26971435 4.63485718 13.90457153 0 4.63485718 4.63485718 9.26971435 4.63485718 13.90457153s4.63485718 4.63485718 4.63485717 9.26971437 4.63485718 9.26971435 4.63485719 13.90457152l13.90457153-27.80914306c4.63485718-9.26971435 9.26971435-18.53942872 13.90457153-32.44400025 0 0 4.63485718 0 4.63485718 4.63485718h4.63485718s4.63485718 0 4.63485717 4.63485718h4.63485718z"  /><path fill="#2c2c2c" d="M790.09143067 164.38571167c37.07885742 0 69.52285766 32.44400024 69.52285766 69.52285766v556.18286133c0 37.07885742-32.44400024 69.52285766-69.52285767 69.52285767H233.90856933c-37.07885742 0-69.52285766-32.44400024-69.52285766-69.52285767V233.90856933C164.38571167 196.82971191 196.82971191 164.38571167 233.90856933 164.38571167h556.18286133m0-23.17428589H233.90856933C182.92514038 141.21142578 141.21142578 182.92514038 141.21142578 233.90856933v556.18286133c0 50.98342896 41.7137146 92.69714356 92.69714356 92.69714356h556.18286133c50.98342896 0 92.69714356-41.7137146 92.69714355-92.69714356V233.90856933c0-50.98342896-41.7137146-92.69714356-92.69714355-92.69714355z"  /><path fill="#2c2c2c" d="M502.73028565 637.1411438c-32.44400024 0-60.25314331-32.44400024-88.06228638-101.96685791-37.07885742-78.79257202-60.25314331-88.06228638-64.88800049-88.06228638-37.07885742 4.63485718-69.52285766 111.23657227-83.4274292 190.02914429l-23.17428589-4.63485718c4.63485718-32.44400024 37.07885742-199.29885864 101.96685791-208.568573 32.44400024-4.63485718 60.25314331 27.80914307 88.06228637 97.33200073 23.17428589 55.61828614 46.34857177 88.06228638 69.52285768 88.06228638 41.7137146-4.63485718 78.79257202-106.60171508 97.33200073-171.48971557l23.17428589 4.63485718c-4.63485718 23.17428589-50.98342896 190.02914429-120.50628662 194.66400146z"  /></svg>