<?xml version="1.0" standalone="no"?><!DOCTYPE svg PUBLIC "-//W3C//DTD SVG 1.1//EN" "http://www.w3.org/Graphics/SVG/1.1/DTD/svg11.dtd"><svg class="icon" width="200px" height="200.00px" viewBox="0 0 1024 1024" version="1.1" xmlns="http://www.w3.org/2000/svg"><path fill="#2c2c2c" d="M768.23565302 512.48446063c7.22286801-8.89645917 13.91723338-17.79291907 20.17118014-26.77746226 44.9227159-65.00581277 55.49276695-123.49342672 29.77230997-164.54045767-14.00531739-22.37327394-45.09888321-49.06265289-113.62804632-49.06265216-19.37842622 0-40.43044432 2.20209379-62.80371897 6.51819807-1.84975919-4.84460691-3.87568495-9.68921311-5.90161145-14.53382003-31.35781711-72.40484806-75.31161179-112.39487377-123.84576204-112.39487375-48.44606625 0-92.39986091 39.9900257-123.84576204 112.48295778-2.1140105 4.7565229-4.05185298 9.60112981-5.90161146 14.53381929-22.37327394-4.22802027-43.60145934-6.51819807-62.80371897-6.51819807-68.4410791 0-99.62272892 26.68937823-113.62804631 49.06265289-25.72045699 41.04703095-15.06232265 99.53464492 29.77230996 164.54045768 6.16586275 8.98454318 12.86022814 17.79291907 20.17118015 26.77746224-7.22286801 8.89645917-13.91723338 17.79291907-20.17118015 26.77746151-44.9227159 65.00581277-55.49276695 123.49342672-29.77230996 164.54045767 14.00531739 22.37327394 45.09888321 49.06265289 113.62804631 49.0626529 19.37842622 0 40.43044432-2.20209379 62.80371897-6.5181981 1.84975919 4.84460691 3.87568495 9.68921311 5.90161146 14.53382003 31.35781711 72.49293208 75.31161179 112.48295778 123.84576204 112.48295707 48.44606625 0 92.39986091-39.9900257 123.84576204-112.48295707 2.1140105-4.7565229 4.05185298-9.60112981 5.90161145-14.53382003 22.37327394 4.22802027 43.51337605 6.51819807 62.80371897 6.5181981 68.4410791 0 99.62272892-26.68937823 113.62804632-49.0626529 25.72045699-41.04703095 15.06232265-99.53464492-29.77230997-164.54045767-6.16586275-9.0726272-12.94831215-17.96908635-20.17118015-26.86554553zM242.99221083 344.5087366c14.70998732-23.5183632 49.67923881-28.45105341 76.45670105-28.4510534 15.23848995 0 31.62206843 1.58550787 48.79840158 4.58035488-8.89645917 31.26973383-15.59082527 65.44623138-19.64267825 101.3844041-23.16602788 18.40950498-44.30612999 37.61176388-63.24413687 57.16635812-4.84460691-6.16586275-9.3368785-12.24364222-13.6529828-18.40950497C237.88335332 411.80472645 227.40138628 369.34835563 242.99221083 344.5087366z m101.0320695 197.04336407c-10.57005105-9.60112981-20.43543145-19.29034293-29.77230996-29.06764005 9.2487945-9.77729712 19.29034293-19.46651022 29.77230996-29.06764004-0.35233532 9.68921311-0.44041861 19.37842622-0.52850263 29.06764004-0.08808401 9.77729712 0.08808401 19.37842622 0.52850263 29.06764005z m-25.28003838 167.35913736c-26.60129422 0-61.39437841-4.9326902-76.0162817-28.4510534-15.59082527-24.92770306-5.02077423-67.29598984 28.891472-116.35864273 4.22802027-6.16586275 8.89645917-12.24364222 13.74106609-18.40950497 18.93800759 19.55459423 40.166193 38.75685315 63.33222088 57.16635811 4.22802027 35.93817273 10.48196705 70.11467027 19.37842694 101.38440411-17.35250045 3.17101503-34.00033025 4.66843888-49.32690421 4.66843888z m306.97189273-323.44355449c-8.01562194-5.37310882-16.20741118-10.74621836-24.39920115-15.85507658-12.50789352-7.83945464-25.10387036-15.23848995-37.96409923-22.28518993 16.82399782-6.60628209 33.47182762-12.24364222 49.59115553-16.82399783 5.02077423 17.44058373 9.2487945 35.85008872 12.77214485 54.96426433z m-197.30761538-104.02691723c23.6945305-54.78809703 54.08342638-85.96974685 83.59148504-85.96974613 29.41997464 0 59.89695454 31.35781711 83.59148504 86.05783014l3.17101576 7.48711933c-8.98454318 2.55442912-17.79291907 5.37310882-26.60129495 8.36795727-19.73076154 6.78244939-39.90194168 14.88615461-59.98503855 24.0468651-20.25926417-9.2487945-40.34236029-17.35250045-59.98503781-24.0468651-8.80837588-2.99484773-17.61675104-5.90161144-26.60129495-8.45604128 0.79275395-2.4663451 1.76167518-5.02077423 2.81868042-7.48711933zM411.05601885 330.59150322h-0.44041861c16.11932717 4.5803556 32.94332499 10.12963172 49.76732282 16.73591381-12.86022814 7.13478399-25.45620568 14.53382003-37.87601592 22.19710664-8.19178925 5.19694151-16.29549519 10.48196705-24.31111642 15.85507587 3.52335035-18.93800759 7.83945464-37.78793192 12.86022813-54.78809631z m-12.7721441 308.8216512c8.01562194 5.37310882 16.20741118 10.74621836 24.39920042 15.85507585 12.50789352 7.83945464 25.10387036 15.23848995 37.9640992 22.28519064-16.82399782 6.60628209-33.47182762 12.24364222-49.59115552 16.82399783-5.02077423-17.26441643-9.2487945-35.76200542-12.7721441-54.96426432z m197.21953134 103.93883247c-23.6945305 54.70001303-54.08342638 86.05783014-83.59148575 86.05783088-29.41997464 0-59.89695454-31.35781711-83.59148504-86.05783088l-3.17101503-7.48711931c8.98454318-2.55442912 17.79291907-5.37310882 26.60129421-8.36795654 19.73076154-6.78244939 39.90194168-14.88615461 59.98503855-24.04686584 20.25926417 9.2487945 40.34236029 17.35250045 59.98503854 24.04686584 8.80837588 2.99484773 17.61675104 5.81352815 26.60129423 8.36795654-0.70466993 2.55442912-1.76167518 5.02077423-2.81867971 7.48711931z m17.44058374-48.97456815c-16.11932717-4.5803556-32.67907368-10.21771573-49.59115553-16.82399782 12.86022814-7.0467007 25.54428969-14.53382003 37.96409922-22.28519065 8.19178925-5.19694151 16.38357848-10.39388302 24.39920115-15.85507585-3.52335035 19.20225891-7.75137063 37.6998479-12.77214484 54.96426432z m20.69968278-114.50888427c-17.52866775 13.30064748-36.20242403 26.07279232-55.58085025 38.22835053-21.84477204 13.65298208-43.95379466 25.9847083-66.06281802 36.81901066-22.10902263-10.83430237-44.21804598-23.16602788-66.06281729-36.81901066-19.46651022-12.24364222-38.05218323-25.01578707-55.58085098-38.22835053-1.93784248-21.93285533-2.99484773-44.39421327-2.99484772-67.38407385s1.05700524-45.45121853 2.99484772-67.38407385c17.52866775-13.30064748 36.20242403-26.07279232 55.58085098-38.22835053 21.84477204-13.65298208 43.95379466-25.9847083 66.06281729-36.81901067 22.10902263 10.83430237 44.21804598 23.16602788 66.06281802 36.81901067 19.46651022 12.1555582 38.05218323 25.01578707 55.58085025 38.22835053 1.93784248 21.93285533 2.99484773 44.39421327 2.99484772 67.38407385s-0.96892123 45.45121853-2.99484772 67.38407385z m70.9074242-263.81085127c26.77746224 0 61.74671373 4.9326902 76.36861704 28.4510534 15.59082527 24.92770306 5.19694151 67.38407385-28.71530472 116.35864274-4.22802027 6.16586275-8.80837588 12.24364222-13.65298207 18.40950497-18.93800759-19.55459423-40.166193-38.75685315-63.2441376-57.16635812-4.22802027-35.93817273-10.83430237-70.11467027-19.64267751-101.3844041 17.26441643-3.17101503 33.73607893-4.66843888 48.88648486-4.66843889z m-24.57536845 167.35913737c10.57005105 9.60112981 20.43543145 19.29034293 29.77230996 29.06764005-9.2487945 9.77729712-19.29034293 19.46651022-29.77230996 29.06764005 0.35233532-9.60112981 0.52850263-19.37842622 0.52850263-29.06764005 0-9.77729712-0.08808401-19.46651022-0.52850263-29.06764005z m101.0320695 196.77911275c-14.70998732 23.5183632-49.67923881 28.2748861-76.45670105 28.2748861-15.23848995 0-31.62206843-1.40933986-48.79840158-4.31610429 8.98454318-31.26973383 15.59082527-65.35814737 19.64267825-101.29632009 23.16602788-18.40950498 44.30612999-37.61176388 63.24413687-57.16635811 4.84460691 6.16586275 9.3368785 12.1555582 13.65298279 18.32142168 33.82416294 48.97456888 44.30612999 91.34285566 28.71530472 116.18247471z"  /><path fill="#2c2c2c" d="M517.19694586 456.28702374c-29.59614195 0-53.55492448 24.04686583-53.55492376 53.55492448s24.04686583 53.55492448 53.55492376 53.55492376 53.55492448-24.04686583 53.55492448-53.55492376-23.95878181-53.55492448-53.55492448-53.55492448z"  /></svg>