<?xml version="1.0" standalone="no"?><!DOCTYPE svg PUBLIC "-//W3C//DTD SVG 1.1//EN" "http://www.w3.org/Graphics/SVG/1.1/DTD/svg11.dtd"><svg class="icon" width="200px" height="200.00px" viewBox="0 0 1024 1024" version="1.1" xmlns="http://www.w3.org/2000/svg"><path fill="#2c2c2c" d="M703.43678827 801.22623858H317.40840737c-39.51054605 0-71.65382131-32.14406551-71.65382055-71.65382131V586.12248915c0-39.50975504 32.14406551-71.65382131 71.65382055-71.65382131h386.0283809c39.50975504 0 71.65382131 32.14406551 71.65382054 71.65382131v143.44992812c0 39.50975504-32.14406551 71.65382131-71.65382054 71.65382131zM317.40840737 542.92514596c-23.81873342 0-43.19655294 19.37860899-43.19655218 43.19655295v143.44992812c0 23.81873342 19.37781876 43.19655294 43.19655218 43.19655295h386.0283809c23.81873342 0 43.19655294-19.37860899 43.19655217-43.19655296V586.12248915c0-23.81873342-19.37860899-43.19655294-43.19655217-43.19655295H317.40840737z"  /><path fill="#2c2c2c" d="M427.76095168 797.94258596c-7.85815855 0-14.22863457-6.37047601-14.22863378-14.22863458V492.17318872H342.95987288v33.2436228c0 7.85815855-6.37047601 14.22863457-14.22863456 14.22863457s-14.22863457-6.37047601-14.22863381-14.22863457v-47.47225736c0-7.85815855 6.37047601-14.22863457 14.22863381-14.2286338h99.02971336c7.85815855 0 14.22863457 6.37047601 14.22863458 14.2286338v305.76939722c0 7.85815855-6.37047601 14.22863457-14.22863458 14.22863458z"  /><path fill="#2c2c2c" d="M369.85515342 672.07608777h-51.96692479c-7.85815855 0-14.22863457-6.37047601-14.22863379-14.22863455s6.37047601-14.22863457 14.22863379-14.2286338h51.9669248c7.85815855 0 14.22863457 6.37047601 14.22863457 14.2286338s-6.37047601 14.22863457-14.22863457 14.22863456z"  /><path fill="#2c2c2c" d="M343.87208615 698.05915428c-7.85815855 0-14.22863457-6.37047601-14.22863379-14.22863379V631.8635957c0-7.85815855 6.37047601-14.22863457 14.22863379-14.22863379s14.22863457 6.37047601 14.22863457 14.22863379v51.96692479c0 7.8589488-6.37047601 14.22863457-14.22863457 14.22863379zM708.27689468 672.07608777h-51.96692402c-7.85815855 0-14.22863457-6.37047601-14.22863455-14.22863455s6.37047601-14.22863457 14.22863455-14.2286338h51.96692402c7.85815855 0 14.22863457 6.37047601 14.22863457 14.2286338s-6.37047601 14.22863457-14.22863457 14.22863456zM832.88336909 675.27436866h-72.02139408c-7.85815855 0-14.22863457-6.37047601-14.22863457-14.22863457s6.37047601-14.22863457 14.22863457-14.22863456h57.7927595V348.6204981c0-7.85815855 6.37047601-14.22863457 14.22863457-14.22863457s14.22863457 6.37047601 14.2286338 14.22863456v312.425236c0 7.85815855-6.36968499 14.22863457-14.2286338 14.22863457zM259.98243038 675.27436866h-72.02139408c-7.85815855 0-14.22863457-6.37047601-14.22863456-14.22863457V348.6204981c0-7.85815855 6.37047601-14.22863457 14.22863456-14.22863457s14.22863457 6.37047601 14.22863457 14.22863456v298.19660143h57.79275951c7.85815855 0 14.22863457 6.37047601 14.22863455 14.22863457s-6.37047601 14.22863457-14.22863455 14.22863457z"  /><path fill="#2c2c2c" d="M187.9610363 359.8966908c-29.67223592 0-53.81269487-24.14045894-53.81269486-53.81269487s24.14045894-53.81269487 53.81269486-53.81269486 53.81269487 24.14045894 53.81269487 53.81269486-24.14045894 53.81269487-53.81269487 53.81269487z m0-79.16812137c-13.98121431 0-25.3554265 11.3742122-25.3554265 25.3554265s11.3742122 25.3554265 25.3554265 25.35542574 25.3554265-11.3742122 25.35542649-25.35542574-11.3742122-25.3554265-25.35542649-25.3554265zM832.88336909 359.8966908c-29.67223592 0-53.81190385-24.14045894-53.81190463-53.81269487s24.13966871-53.81269487 53.81190462-53.81269486 53.81269487 24.14045894 53.8126941 53.81269486-24.14045894 53.81269487-53.81269409 53.81269487z m-1e-8-79.16812137c-13.98121431 0-25.3546355 11.3742122-25.35463626 25.3554265s11.3742122 25.3554265 25.35463626 25.35542574 25.3554265-11.3742122 25.35542573-25.35542574-11.3742122-25.3554265-25.35542573-25.3554265z"  /><path fill="#2c2c2c" d="M469.50302157 386.8433526a14.22705331 14.22705331 0 0 1-12.34175871-7.14672728l-67.15124915-117.0178691-34.30839859 51.3139885a14.22863457 14.22863457 0 0 1-11.82794771 6.31988501H233.46420858c-7.85815855 0-14.22863457-6.37047601-14.22863456-14.2286338s6.37047601-14.22863457 14.22863457-14.22863456h102.80583503l42.83451267-64.06521601c2.73585036-4.09231315 7.40679454-6.46691425 12.31488274-6.31198024a14.22863457 14.22863457 0 0 1 11.8548237 7.13882176l67.1457159 117.00838386 47.00113108-70.36138753a14.18911006 14.18911006 0 0 1 12.499065-6.30881773 14.22863457 14.22863457 0 0 1 11.85324245 7.45422304l35.14393587 65.10706855 38.58094203-78.80766234a14.23100529 14.23100529 0 0 1 23.69225667-2.87576511l26.83125232 32.06422777 119.0280584-0.04189602h0.00474301c7.85578705 0 14.22547205 6.36652325 14.22863379 14.22389156 0.00316175 7.85815855-6.365733 14.23100529-14.22310055 14.2333768l-125.67678343 0.04426752h-0.00553324a14.23100529 14.23100529 0 0 1-10.91257192-5.09701346l-17.04037068-20.36354706-41.11047635 83.97423729a14.22942481 14.22942481 0 0 1-25.30088351 0.50195504l-37.05689669-68.6507892-46.62328208 69.79540349a14.22863457 14.22863457 0 0 1-11.83031923 6.32620926zM597.49512011 797.94258596c-7.85815855 0-14.22863457-6.37047601-14.22863382-14.22863458V477.94455416c0-7.85815855 6.37047601-14.22863457 14.22863382-14.2286338h99.02971337c7.85815855 0 14.22863457 6.37047601 14.22863457 14.2286338v47.47225737c0 7.85815855-6.37047601 14.22863457-14.22863457 14.22863456s-14.22863457-6.37047601-14.2286338-14.22863456v-33.24362281h-70.57244502v291.54076266c0 7.85815855-6.37047601 14.22863457-14.22863455 14.22863458z"  /></svg>