<?xml version="1.0" standalone="no"?><!DOCTYPE svg PUBLIC "-//W3C//DTD SVG 1.1//EN" "http://www.w3.org/Graphics/SVG/1.1/DTD/svg11.dtd"><svg class="icon" width="200px" height="200.00px" viewBox="0 0 1024 1024" version="1.1" xmlns="http://www.w3.org/2000/svg"><path fill="#2c2c2c" d="M397.91443896 249.20214963l-5.26635647 2.01978385c-3.82375718 1.37017965-9.23350453 2.74108351-16.23069048 4.03956771-7.06960558 1.37017965-14.86051082 2.30801404-23.517555 2.81350314H345.18135142v-18.68426799h7.7184856c12.69661189-0.57646035 24.52708483-2.59696841 35.34802795-6.05935156 10.82021892-3.53407859 18.39458943-6.78065122 22.7231115-9.73826945s8.15155506-5.98765612 11.39812767-8.94527435c0.57718455-0.79371929 2.16389894-1.22606456 4.90498245-1.22606457 2.45285332 0 4.76159154 0.79299509 6.9254905 2.45212914v121.40791117l0.43306947 121.7692852c1.87566877 1.87566877 3.53407859 3.10173333 4.90498245 3.6789179 1.37090384 0.57718455 4.61675227 1.08194948 9.73899365 1.65840982 5.12151718 0.57790876 13.56130243 0.79444349 25.17596482 0.79444349h10.53198874v18.68354379h-4.6891719c-5.69942594-0.79371929-27.19574869-1.22678876-64.56356049-1.22678876-36.78990305 0-58.07041526 0.43306947-63.7698412 1.22678876h-4.90498245v-18.68426799h25.96968414c4.32779789 0 7.71848558-0.14411509 10.17133891-0.43234527s4.61675227-0.6496042 6.49242104-1.22678876c1.87566877-0.57646035 2.95761823-0.79299509 3.2458484-0.79299508 0.28895437 0 1.08267367-0.6496042 2.45285333-2.02050806s2.16462314-1.87566877 2.45285332-1.65840984V249.20214963z m-40.46954512 345.25123537c13.05726171-18.90007853 30.94708621-28.3501178 53.52608264-28.35011781 11.18159294 0 22.43560552 3.03003788 33.61647426 9.08938944 11.18159294 6.05935156 20.27025819 16.80859923 27.33986378 32.17387498 8.65704417 19.40484345 12.98484205 45.95171213 12.98484206 79.78472113 0 36.14029884-5.04909754 63.84153664-15.07632136 82.95814992-4.68917191 9.81068909-11.1091733 17.60159433-19.26072836 23.44441116-8.15227926 5.84354103-15.29358029 9.45076346-21.35293185 10.82094311s-12.04700768 2.23631858-17.81812907 2.45285332c-6.06007576 0-12.11942732-0.72129965-18.17877889-2.0922035-6.05935156-1.37090384-13.20137679-5.12151718-21.35293186-11.18159293s-14.57155645-13.8502568-19.26072835-23.44441116c-10.09964347-19.04419363-15.14874101-46.74543142-15.14874101-82.88645447 0-40.61366022 6.70823156-71.56074643 19.98202801-92.76956319z m78.7744671-4.18368281c-6.99718595-7.50267505-15.29358029-11.18159294-24.88773464-11.18159293-9.81068909 0-18.17877889 3.75133753-25.17596484 11.18159293-5.84281682 6.05935156-9.666574 14.499861-11.54224276 25.17596484-1.87566877 10.74852347-2.81350314 33.11098516-2.81350315 67.23222434 0 36.86304689 0.93783438 61.17287279 2.81350315 72.78753519s6.06007576 20.91986239 12.62419223 27.62809396c6.56484068 6.99791014 14.57228064 10.53271294 24.16643501 10.53271294 9.30592418 0 17.2409445-3.5348028 23.80506098-10.53198875 6.78137542-6.99791014 10.96505821-16.80859923 12.62419225-29.43279146 1.65913403-12.62346803 2.59696841-36.28513813 2.81350314-71.05525733 0-33.83300901-0.93783438-56.12377523-2.81350314-66.87229871-1.94808841-10.67610383-5.77112139-19.18830872-11.61393823-25.46419502z m177.38684715-17.8905487l-5.26563227 2.02050805c-3.82375718 1.37017965-9.23350453 2.74108351-16.23141468 4.03956772-7.06960558 1.37017965-14.86051082 2.30801404-23.5168308 2.81277893h-7.7184856v-18.68354379h7.7184856c12.69588769-0.57718455 24.52708483-2.59696841 35.34802794-6.05935156s18.39458943-6.78137542 22.72311152-9.73899365 8.15155506-5.98693192 11.39740347-8.94455016c0.57718455-0.79371929 2.16462314-1.22678876 4.90570664-1.22678876 2.45285332 0 4.76086735 0.79371929 6.92476631 2.45285333V660.46026897l0.43306947 121.76856101c1.87566877 1.87566877 3.5348028 3.10245753 4.90570664 3.67891789 1.37017965 0.57718455 4.61675227 1.08267367 9.73826945 1.65985822 5.12151718 0.57718455 13.56202662 0.79299509 25.17596482 0.79299509h10.53198875v18.684268h-4.68844771c-5.69942594-0.79371929-27.19647289-1.22678876-64.5635605-1.22678875-36.79062724 0-58.07113945 0.43306947-63.76984119 1.22678875h-4.90570664v-18.684268h25.96968412c4.32852209 0 7.71920978-0.14411509 10.17206311-0.43234527 2.45212912-0.28895437 4.61675227-0.6496042 6.49169684-1.22678875 1.87566877-0.57718455 2.95834243-0.79299509 3.24657261-0.79299509 0.28823018 0 1.08194948-0.6496042 2.45285333-2.02050807s2.16389894-1.87566877 2.45285332-1.65840982V572.3784293z m-46.23994231-315.53093791c13.05726171-18.90007853 30.94708621-28.3501178 53.52535843-28.3501178 11.18159294 0 22.43560552 3.03003788 33.61719847 9.08938945s20.27025819 16.80859923 27.33986378 32.17387497c8.65631998 19.40484345 12.98484205 45.95171213 12.98484206 79.78472113 0 36.14029884-5.04982174 63.84153664-15.07704556 82.9581499-4.68844771 9.81068909-11.1091733 17.60159433-19.26072836 23.44441117-8.15155506 5.84354103-15.29285609 9.45076346-21.35293186 10.82094312-6.05935156 1.37090384-12.04700768 2.23631858-17.81740486 2.45285332-6.06007576 0-12.11942732-0.72129965-18.17877889-2.0922035-6.06007576-1.37090384-13.20210099-5.12151718-21.35293185-11.18159294s-14.57228064-13.8502568-19.26072837-23.44441117c-10.09964347-19.04419363-15.1494652-46.74543142-15.1494652-82.88645445 0-40.61366022 6.70895576-71.56074643 19.98275221-92.7695632z m78.7744671-4.1836828c-6.99791014-7.50267505-15.29358029-11.18159294-24.88773465-11.18159294-9.81068909 0-18.17877889 3.75133753-25.17596482 11.18159294-5.84354103 6.05935156-9.666574 14.499861-11.54224278 25.17596482s-2.81350314 33.11098516-2.81350314 67.23222436c0 36.86304689 0.93783438 61.17287279 2.81350314 72.78753519s6.05935156 20.91986239 12.62419225 27.62809396c6.56411647 6.99791014 14.57155645 10.53271294 24.166435 10.53271293 9.30592418 0 17.2409445-3.5348028 23.80506098-10.53198873 6.78137542-6.99791014 10.96505821-16.80859923 12.62419224-29.43206729s2.59696841-36.28586233 2.81350314-71.0559815c0-33.83300901-0.93783438-56.12305105-2.81350314-66.87229873-1.94808841-10.67610383-5.77112139-19.18830872-11.61393822-25.46419501zM708.9727397 155.27821731c0-6.9254905 0.43234527-10.82094312 1.37017965-11.83047294S714.38393545 141.71691489 719.57642389 141.21142578c25.6090343 0 45.37525178 6.13177121 59.29720401 18.46700907 13.92340064 12.33596205 23.6616701 25.82556903 29.21625674 40.61366022 2.81350314 10.31617821 4.32852209 18.97249818 4.61675226 25.82556902 0.28895437 6.9254905 0.6496042 39.89236057 0.93783439 98.97302985 0.28895437 68.4582889 0.6496042 103.8787365 0.93783438 106.40328527 4.03956771 22.14592696 12.04700768 38.37734164 24.09401536 48.76521529 12.04700768 10.31617821 23.15618097 15.72592556 33.3275199 16.23141467 3.3906877 0 5.55458665 0.72129965 6.49242102 2.23631858s1.37090384 5.40974736 1.37090386 11.83047296c0 6.4200014-0.43306947 10.31545401-1.37090386 11.83047294-0.93783438 1.44259929-3.10173333 2.23631858-6.49242102 2.23631858-11.39740347 0-22.57899642 5.19393683-33.3275199 15.50939084s-18.03466379 23.37271571-21.78527712 39.17106092c-1.51501894 6.9254905-2.45285332 15.72592556-2.81350316 26.61856412s-0.43306947 47.53915071-0.43306946 110.08292735v37.65531779c0 27.05235779-0.93783438 46.02413178-2.81350314 56.84507489s-6.34758174 21.20809256-13.41718735 31.01950585c-16.66375995 25.60831011-42.48932898 38.37734164-77.40428744 38.37734164-5.55458665 0-8.80043506-0.72202384-9.73826945-2.23631859-0.93783438-1.44332349-1.37090384-5.69942594-1.37090386-12.55249679v-5.19393683c0-0.50476493 0.14483929-1.73082948 0.43306947-3.67891789s0.79371929-2.95761823 1.37017965-2.95761823 1.87566877-0.21653473 3.67891789-0.72129965c4.32852209 0 9.09011364-0.72129965 14.35574591-2.23631859 5.26635647-1.44259929 11.1091733-3.96787225 17.60159433-7.35783577 6.49242103-3.46310735 12.19112276-9.08938944 17.16924906-17.02440976s8.65631998-17.2409445 11.10917329-28.06188762c0.28823018-2.45285332 0.64888-37.43950724 0.93783439-104.88826634l0.43234527-100.48804878c4.03956771-28.06188762 14.86051082-50.49676895 32.46210515-67.23294854 10.82094312-8.3673656 18.53942872-13.27307224 23.15618099-14.7880912-7.71848558-3.46238316-15.4369712-8.3680898-23.15618099-14.78809117-17.02440977-16.73617959-27.48470307-36.93401813-31.52427077-60.59568823l-0.93783438-7.35783577-0.28823018-100.41635334c-0.28895437-67.44875908-0.6496042-102.435413-0.93783438-104.88826633-3.67891789-19.69379783-11.90289258-33.47235919-24.52708483-41.33495986s-24.52708483-12.04700768-35.70795358-12.55177259c-2.81350314 0-4.32852209-0.72202384-4.61675226-2.23631859s-0.6496042-5.19393683-0.93783438-11.03675365z m-396.75825834 2.8859228c0-6.9254905-0.43306947-10.82094312-1.37090385-11.83119715-0.93783438-1.00952982-4.03956771-1.73082948-9.23350454-2.23631859-25.6090343 0-45.37452758 6.13177121-59.29720402 18.46700908s-23.6616701 25.82629323-29.21625673 40.61438441c-2.81277894 10.31545401-4.32779789 18.97177398-4.61675228 25.82484483s-0.64888 39.89236057-0.93783437 98.97375404c-0.28823018 68.4582889-0.64888 103.8787365-0.93783438 106.40328527-4.03956771 22.2183466-12.04700768 38.44903708-24.09401536 48.76521529s-23.22787643 15.79762102-33.39993954 16.23069048c-3.38996351 0-5.55458665 0.72129965-6.49169685 2.23631858S141.2476356 507.02187372 141.2476356 513.44259929s0.43306947 10.31617821 1.37090384 11.83047295c0.93783438 1.44332349 3.10173333 2.23631858 6.49242103 2.23631859 11.39740347 0 22.57899642 5.19393683 33.3275199 15.51011503S200.47241998 566.39222158 204.22375751 582.18911838c1.51501894 6.9254905 2.45285332 15.72664976 2.81350314 26.61928833s0.43306947 47.53842652 0.43306946 110.08220315v37.65604198c0 27.0516336 0.93783438 46.02413178 2.81350316 56.8443507s6.34758174 21.20881676 13.41718733 31.01950585c16.66375995 25.6090343 42.48932898 38.37734164 77.40428745 38.37734163 5.55458665 0 8.80043506-0.72129965 9.73826946-2.23631859 0.93783438-1.44259929 1.37090384-5.69942594 1.37090384-12.5517726v-5.19393682c0-0.50476493-0.14483929-1.73082948-0.43306947-3.67891789-0.28823018-1.94808841-0.79371929-2.95761823-1.37017965-2.95761823s-1.87566877-0.21725894-3.67891788-0.72202384c-4.32852209 0-9.09011364-0.72129965-14.35574592-2.2355944-5.26635647-1.44332349-11.1091733-3.96859646-17.60159432-7.35783577-6.49242103-3.46310735-12.19112276-9.09011364-17.16924906-17.02513396s-8.65631998-17.2409445-11.1091733-28.06188762c-0.28823018-2.45212912-0.64888-37.43950724-0.93783438-104.88826633l-0.43234527-100.48804879c-4.04029191-28.06116343-14.86051082-50.49604475-32.46210515-67.23222435-10.82094312-8.3680898-18.53942872-13.27379645-23.15618098-14.78809117 7.71848558-3.46310735 15.4369712-8.3680898 23.15618098-14.78809118 17.02440977-16.73617959 27.48470307-36.93474233 31.52427077-60.59641244l0.93783438-7.35783576 0.43234527-100.4880488c0.28895437-67.44875908 0.6496042-102.43613721 0.93783438-104.88826632 3.67891789-19.69379783 11.90289258-33.47235919 24.52708483-41.33495986s24.52708483-12.04700768 35.70795357-12.55249679c2.81350314 0 4.32852209-0.72129965 4.61675227-2.23631858 0.21725894-1.37017965 0.57718455-5.12151718 0.86613893-10.96433401z" /></svg>