<?xml version="1.0" standalone="no"?><!DOCTYPE svg PUBLIC "-//W3C//DTD SVG 1.1//EN" "http://www.w3.org/Graphics/SVG/1.1/DTD/svg11.dtd"><svg class="icon" width="200px" height="200.00px" viewBox="0 0 1024 1024" version="1.1" xmlns="http://www.w3.org/2000/svg"><path fill="#2c2c2c" d="M239.78882622 399.81690667c3.32852041 59.83364053 0.07972531 208.10227835 1e-8 255.79778247 38.70650555 29.19929452 81.77795727 54.57178811 127.83909706 76.73534802v-21.40617232c-33.00616516-17.02129505-63.81989209-36.21509802-91.80338078-58.27900232 5.38143997-7.93264087 8.78968569 2.89003244 17.99792743-3.34845154-6.65704083-15.26734478-14.13126261-15.10789417-32.42815851-12.0384808-10.54363596-56.32573919 1.933332-151.81640222-3.58762665-210.7730668 37.37111133 14.76906345 73.50648404 30.91338337 109.84116961 46.8583904v-21.50582876c-34.76011625-16.40342615-69.22126318-33.5044465-102.62605407-47.77522861 34.04259092-17.97799549 68.08518182-35.95599179 102.62605407-53.43570594v-18.87490256c-20.11064035 9.34776041-40.02196866 18.65565857-59.39515254 28.00341898-23.14019229 11.10171149-52.87763123 17.75875232-68.46387562 40.04189978zM200.20534473 316.32486222c19.75187767-1.59450046 46.69894061 4.54432709 50.36629257-14.11133232-22.10376654-11.16150486-53.475569-7.69346576-71.93191471-1.35532533 1.41511954 22.58211677-22.84122299 96.0886008 7.17525329 105.41643008 9.80617951-8.86941019-8.82954794-34.10238427 3.60755778-45.04464597 14.09140036 5.99930887 49.52917969 3.42817685 61.14910364-13.85222525-23.12026117-1.33539422-51.72161792 2.90996356-61.14910364-12.45703684 7.31477198-2.29209466 2.37181998-17.55943945 10.78281107-18.59586437z"  /><path fill="#2c2c2c" d="M367.62792329 609.05526721v-3.10927642c-0.57800665 1.19587554-1.23573779 2.23230129-1.6941569 3.50790133 0.53814441-0.11958756 1.11615024-0.2391751 1.6941569-0.39862491zM358.6987189 620.6153978c0.89690707-34.46114694-56.16628857-7.39449728-57.70099566 13.77249994 23.35943628-0.17938175 31.35187051-16.80205188 57.70099566-13.77249994zM157.07409964 747.73696951c-0.47835022 8.29140353 3.48797021 22.96081055 10.78281189 26.5484372 7.55394708-6.95600931 8.05222842-21.42610346 17.95806436-25.91063718 14.47009415 2.9298955 20.50926608-3.10927643 32.36836514-2.94982663 6.77662839 11.87903017 9.18831061 28.22266297 25.21304297 30.65427713 5.76013376-26.64809362-24.77455499-46.9181846-25.21304297-79.58551822-22.36287277-27.48520652-60.47144055 40.22128151-61.10924139 51.2432677z m32.34843402-18.03778968c1.55463821-7.13539105 7.75325994-9.26803593 7.19518442-18.67558968 12.2577248-2.47147642 5.91958438 13.99174391 14.39036966 15.38693152-0.4584191 8.31133548-15.26734478 1.25566973-21.58555408 3.28865816z"  /><path fill="#2c2c2c" d="M535.76802634 168.01636133c-1.79381332-25.83091187 50.76491748 5.95944663 39.86251885-29.49826382-19.75187767 0.4584191-43.56973306-3.34845154-57.96010188 2.790376 5.66047733 21.34637897-7.37456617 43.9085646-7.23504749 79.08723687 10.34432391 19.31339053 63.48106055 24.47558652 68.8226391-2.53126977-7.79312219-8.29140353-44.42677707 10.02542349-50.72505524-8.45085334-5.30171466-6.73676532 2.37181998-22.60204788 7.23504666-30.03640822 2.37181998 20.01098474 59.49480899 17.14088259 54.35254412-6.59724666-20.42954077 0.13951867-48.69206679-1.11615024-54.35254412-4.76357106zM521.29793218 790.15068927c-2.19243823-0.57800665-3.84673287-2.43161333 1e-8-3.74707645 74.10442181-25.2329741 156.48031687-92.70028702 246.68919635-103.86179269-2.71065152-90.08929191-2.71065152-182.92909762-7.27490973-298.86923337-62.62401654-59.51474011-158.15454263-85.26592749-239.41428663-125.38755175-49.74842285 25.63159983-102.44667316 49.66869836-153.67000891 73.46662178v18.87490257c46.26045263-23.41922964 93.39788123-45.98141529 142.8274045-66.15184983 2.21237018 9.08865417-4.54432709 27.28589364 3.64742001 30.23572028 14.23091904-3.00962 13.25428747-18.27696479 10.84260525-33.70375938 63.28174851 42.11475129 159.23083063 51.10374903 206.746953 109.68171983-70.25768894 35.05908473-132.26383657 78.78826841-195.88441663 120.64391262-54.81096323-8.07216038-111.89408999-32.88657761-168.16003501-59.49480898v21.50582876c46.12093396 20.25015985 92.64049282 40.10169397 142.82740449 56.32573837-9.68659194 9.68659194 2.81030796 15.80548837 3.64742001 22.6817732 6.75669727 56.58484543-9.82611063 142.0899472-3.64742001 214.91876898-51.22333657-15.12782611-98.99856518-33.72369049-142.82740449-56.34566949v21.40617233a1026.77875405 1026.77875405 0 0 0 77.73191154 33.40479089c25.13331766 9.62679859 48.79172242 27.14637497 75.91816626 24.41579234z m10.86253639-233.61429061c1.13608218-16.46322034 12.1182053 7.23504748 21.764935-3.34845155 3.10927643-17.00136393-18.09758303-9.22817286-18.13744529-23.0006728 68.5236698-40.44052551 132.04459259-86.24255905 203.11946329-124.25147038 14.66940701 73.24737781 8.90927325 190.44318247 10.94226169 253.54554922-14.82885682-2.71065152-28.38211359-22.12369766-43.62952725-12.29758703 1.17594443 10.54363596 3.02955111 12.61648746 18.17730834 15.52645101-61.22882895 36.89276111-130.60954193 65.05563071-192.2369958 101.31059097-11.28109239-43.43021438 0.33883154-151.43770843 0-207.48440944zM782.57681024 327.40664175c-7.83298525 16.96150169-1.73401996 48.59241038-3.66735113 71.79239604 70.51679516 41.11818777 81.63843777-83.61163284 3.66735113-71.79239604z m40.02196949 57.52161475c-5.89965244 6.37800265-15.22748172 9.1085853-29.11957006 7.01580349v-45.40340945c23.71819895-1.51477598 31.45152695 13.2742186 29.11957006 38.38760596z"  /><path fill="#2c2c2c" d="M524.92542191 330.03756796c-3.62748889-0.07972531-7.25497861-0.13951867-10.84260526-0.23917511 2.73058265 19.0542843-11.26116128 32.74705893 3.58762665 45.34361527 6.25841511-18.11751499 15.02816969-27.30582559 7.25497861-45.10444016zM517.67044331 390.24990228c2.05291956 16.78211991-6.27834705 44.14773972 10.86253637 45.48313395 7.05566574-18.23710254 1.27560086-34.18210959-1e-8-45.28382107l-10.86253637-0.19931287zM521.29793218 458.19556543c-4.76357107 6.01923999-7.81305332 33.1058216 3.62748973 34.02265979 3.26872623-4.40480841 10.18487329-35.45771045-3.62748972-34.02265979zM448.96739258 577.36456515c13.1147688-11.1814368 38.82609311-8.9491355 43.39035132-29.23915758-24.43572428-3.30858929-47.6955033 14.49002527-43.39035132 29.23915758zM593.76799131 572.93982562c0.83711287-18.47627765-16.1243888-18.77524613-29.01991361-23.27971097 0.17938175 5.24192129-1.69415689 8.25154129-3.58762665 11.24123018 11.14157373 3.72714532 13.91201862 16.00480124 32.60754026 12.03848079zM648.16039767 604.31162727c-1.99312619-18.13744611-22.78142963-17.04122698-32.66733361-27.12644386-11.87903017 18.71545276 19.59242788 33.22540915 32.66733361 27.12644385zM420.08699765 584.26078028c-21.74500388-1.77388221-43.58966419 3.14913867-52.45907438 21.6852105v3.10927643c20.60892251-4.942952 46.73880286-3.96632044 52.45907438-24.79448693zM684.43528989 631.57758978c-2.33195773-11.50033639-5.68040927-21.92438562-18.15737724-23.06046697-0.79725065 2.90996356-3.04948306 4.3250831-7.2549786 3.62748971 1.67422577 12.87559369 17.75875232 24.47558652 25.41235584 19.43297727zM822.59877972 676.20367972c-65.67349959-28.88039493-57.10305789 118.53119888 1e-8 60.57109699-13.59311902-3.42817685-39.32437445-1.55463821-32.76699089-34.79997849 11.44054303-16.46322034 29.85702649-3.34845154 32.76699089-25.7711185zM557.4930991 813.66957535c-11.91889325-15.12782611-39.70306823-19.73194657-57.92023965-8.90927325-0.05979419 30.0962016-6.07903418 53.81439971-3.60755778 86.66111591 15.14775723 15.22748172 44.66595218 19.53263452 61.5078663 1.51477513 4.36494617-24.59517407-9.54707327-30.51475763-18.09758304-41.93536953 14.45016302-3.56769553 20.42954077-16.04466348 18.11751417-37.33124826z m-14.47009416 7.21511554c2.77044487 21.74500388-18.55600214 17.91820212-28.94018829 25.71132432-18.03778967-9.84604175 8.86941019-44.58622687 28.94018829-25.71132432z m0 60.351853c-8.13195373 21.24672253-42.75255129 7.03573462-36.17523577-19.75187769 18.0577208 0.4584191 33.02609629 4.08590798 36.17523578 19.75187769z"  /></svg>