<?xml version="1.0" standalone="no"?><!DOCTYPE svg PUBLIC "-//W3C//DTD SVG 1.1//EN" "http://www.w3.org/Graphics/SVG/1.1/DTD/svg11.dtd"><svg class="icon" width="200px" height="200.00px" viewBox="0 0 1024 1024" version="1.1" xmlns="http://www.w3.org/2000/svg"><path fill="#2c2c2c" d="M493.5386317 173.11875808h-20.58852297C290.01473502 173.11875808 141.21142578 335.9730033 141.21142578 536.19883338 141.21142578 730.53107683 295.26432055 882.78857422 491.9188715 882.78857422c196.12764084 0 355.68381874-154.34562293 355.68381874-344.05276631v-20.68609975H493.5386317V173.11875808z m312.20397949 386.26411901c-11.10414231 157.29241588-147.59336746 282.03349836-313.80422477 282.03349835-173.58759823 0-309.54991399-134.06934233-309.54991398-305.21754206 0-169.74310658 119.33537541-309.2376709 270.01214317-320.92726881v319.54169057a24.4720459 24.4720459 0 0 0 24.45253025 24.58913687h328.88946533zM529.60269945 141.21142578h-20.58852296v340.13021353c0 6.53758771 2.65406551 12.91905461 7.45480132 17.68076059 4.64461501 4.44946289 10.67480824 6.92789194 17.0367595 6.92789194H882.78857422v-20.68609975C882.78857422 292.3175276 727.64282865 141.21142578 529.58318453 141.21142578z m20.56900878 323.36666728V183.16908016c157.97544754 9.56244252 280.6284052 128.27333176 290.77630259 281.4090129h-290.77630259z" /></svg>