<?xml version="1.0" standalone="no"?><!DOCTYPE svg PUBLIC "-//W3C//DTD SVG 1.1//EN" "http://www.w3.org/Graphics/SVG/1.1/DTD/svg11.dtd"><svg class="icon" width="200px" height="200.00px" viewBox="0 0 1024 1024" version="1.1" xmlns="http://www.w3.org/2000/svg"><path fill="#2c2c2c" d="M186.9154175 827.32526612c-13.43384386 0-24.35545027-10.92233062-24.35545026-24.35545026V217.52000403c0-13.43891322 10.92160643-24.36558902 24.35472607-24.36558902 13.43963742 0 24.36631322 10.9266758 24.36631322 24.36558902v561.08856797h668.46951843c13.43384386 0 24.35545027 10.9266758 24.35545026 24.36051966 0 13.43384386-10.92160643 24.35472608-24.35545026 24.35472607H186.9154175z m78.8990289-131.58576786c-5.28228879 0-10.32197178-1.68013572-14.57300484-4.8557371-10.75431705-8.05306435-12.95877099-23.35098982-4.91005181-34.10530686l159.77583825-213.4605199c4.65151369-6.20636344 11.76457107-9.76578892 19.52650846-9.76578892a24.21350778 24.21350778 0 0 1 13.5852009 4.14819717L582.90240664 534.45733141l253.18341852-201.69087946c4.35893834-3.47324609 9.59849954-5.30980825 15.15598297-5.30980825 7.47008622 0 14.41657841 3.34361494 19.06809211 9.18281078 4.05550003 5.08313477 5.88119925 11.44592464 5.157727 17.91661979-0.72926581 6.4598322-3.93673182 12.25630045-9.02493596 16.31831824L599.28590258 583.69689536c-4.28362192 3.42472493-9.67454016 5.30473887-15.17843307 5.30473888a24.2699951 24.2699951 0 0 1-13.60620259-4.14892137L431.22960229 491.06710207 285.34167905 685.96791578c-4.64572012 6.21215701-11.76529527 9.77158248-19.52723265 9.77158248z"  /></svg>