<?xml version="1.0" standalone="no"?><!DOCTYPE svg PUBLIC "-//W3C//DTD SVG 1.1//EN" "http://www.w3.org/Graphics/SVG/1.1/DTD/svg11.dtd"><svg class="icon" width="200px" height="200.00px" viewBox="0 0 1024 1024" version="1.1" xmlns="http://www.w3.org/2000/svg"><path fill="#2c2c2c" d="M845.42956543 822.3895874H176.27566528c-19.13598633 0-34.61270141-15.49566651-34.61270141-34.61270141V234.01568604c0-19.11621094 15.47671508-34.60281372 34.61270141-34.60281372 19.09725952 0 34.61187744 15.48577881 34.61187745 34.60198974V753.16583252h634.54284667c19.09725952 0 34.61352539 15.49401855 34.61352539 34.61105347-0.00164795 19.11703492-15.51708984 34.61270141-34.61517333 34.61270141m-80.77670289-103.83398438h-69.22457885c-19.09725952 0-34.61352539-15.48660278-34.61352539-34.60116576V441.68365479c0-19.12609863 15.5154419-34.61022949 34.61352539-34.6102295h69.22457885c19.13681031 0 34.61434937 15.48660278 34.61434937 34.6102295V683.95526123c-0.00082398 19.11456299-15.47671508 34.60116577-34.61434937 34.60116577m-196.12490844 0H499.30255127c-19.11621094 0-34.61352539-15.48660278-34.61352539-34.60116577V303.23944092c0-19.11621094 15.49649047-34.61187744 34.61352539-34.61187744h69.22457886c19.11621094 0 34.61270141 15.49484253 34.61270141 34.61187744v380.71417236c0 19.11621094-15.49649047 34.60198974-34.61270141 34.60198974m-196.12573242 0h-69.22540284c-19.13598633 0-34.61187744-15.48660278-34.61187744-34.60116576v-69.22375489c0-19.11538696 15.47589112-34.61105347 34.61187744-34.61105346h69.22540284c19.11621094 0 34.61352539 15.49566651 34.61352539 34.61105346v69.22375489c-0.00082398 19.11456299-15.49731445 34.60116577-34.61352539 34.60116576" /></svg>