<?xml version="1.0" standalone="no"?><!DOCTYPE svg PUBLIC "-//W3C//DTD SVG 1.1//EN" "http://www.w3.org/Graphics/SVG/1.1/DTD/svg11.dtd"><svg class="icon" width="200px" height="200.00px" viewBox="0 0 1024 1024" version="1.1" xmlns="http://www.w3.org/2000/svg"><path fill="#2c2c2c" d="M137.23471832 507.51500321l71.0793972-39.09424782h10.66403389L510.40097428 628.34727478h10.66635131l291.42668724-159.92651939h10.66094398l71.08094217 39.09424782L524.62226105 713.64409637h-10.66635132L137.23471832 507.51500321z m17.76926995-174.14626122L510.40097428 137.8975029h10.66635131l355.39775849 195.47046661c7.10909843 3.55493545 7.10909843 14.21433449 0 17.76926995L521.06732559 546.60847855H510.40097428L155.00398827 351.13801194c-7.10987092-7.10909843-7.10987092-14.21433449 0-17.76926995z m362.50917435 462.01646804L808.93984985 635.45869064h10.66017151l71.08171463 39.09115792-369.6144104 206.13218307H510.40097428L137.23471832 674.54984856l71.0793972-39.09115792h10.66403389L510.40097428 795.38521003c0 3.55416298 7.11218833 3.55416298 7.11218834 0z m0 0" /></svg>