<?xml version="1.0" standalone="no"?><!DOCTYPE svg PUBLIC "-//W3C//DTD SVG 1.1//EN" "http://www.w3.org/Graphics/SVG/1.1/DTD/svg11.dtd"><svg class="icon" width="200px" height="200.00px" viewBox="0 0 1024 1024" version="1.1" xmlns="http://www.w3.org/2000/svg"><path fill="#2c2c2c" d="M179.34967903 796.90546515h158.88113846c-100.68640113-84.07224791-150.96815689-186.67968727-150.96815688-307.9310822 0-65.88030169 13.21984887-124.98046852 39.77678533-177.29908975C253.47914369 259.35667197 290.88429506 218.11226998 339.24642477 187.82484633 387.61420539 157.53883559 445.69452766 142.39794922 513.49586684 142.39794922c67.23774054 0 123.28684752 13.89927475 168.15155891 41.69782356C726.50507477 211.89290939 763.45821676 251.7855227 792.38678864 303.76231163c28.92857115 51.98243911 43.5072718 113.68165786 43.50727181 185.21207132 0 121.14121788-50.28881813 223.74865722-150.9695698 307.93108221h158.87548828V882.78857422H560.73221292v-80.45900162c117.86274079-54.91767243 176.73690328-154.47263902 176.7369033-298.43465742 0-81.1384275-20.79664834-147.9241594-62.37723247-200.35860788C633.50565018 251.107509 579.49199578 224.77657615 512.93226821 224.77657615c-68.47935289 0-123.28684752 26.44110993-164.41542227 79.2117398-41.02404786 52.77769224-61.58904168 117.7539759-61.58904167 194.92885098 0 146.00453408 58.64815818 247.1372944 175.83288525 303.41240568V882.78857422H179.34967903v-85.88310906z"  /></svg>