<?xml version="1.0" standalone="no"?><!DOCTYPE svg PUBLIC "-//W3C//DTD SVG 1.1//EN" "http://www.w3.org/Graphics/SVG/1.1/DTD/svg11.dtd"><svg class="icon" width="200px" height="200.00px" viewBox="0 0 1024 1024" version="1.1" xmlns="http://www.w3.org/2000/svg"><path fill="#2c2c2c" d="M814.45228489 360.36849946c-12.59736365 12.59736365-21.11910911 12.59736365-33.71647277 0l-123.38006028-124.49159173c-12.59736365-12.59736365-12.59736365-21.48962031 0-34.08698396l50.3894539-51.13047561c12.59736365-12.59736365 32.60494059-12.59736365 44.83179376 0l112.26473929 113.37627146c12.22685245 12.59736365 12.59736365 32.9754518 0 45.20230497l-50.38945392 51.13047487zM774.43713029 400.75416526l-358.28383817 361.61843398c-6.29868185 6.29868185-16.30247066 6.29868185-22.60115249 0l-134.49538057-135.97742322c-6.29868185-6.29868185-6.29868185-16.30247066 0-22.60115249l358.28383819-361.6184347c6.29868185-6.29868185 16.30247066-6.29868185 22.60115248 0l134.49538056 135.97742395c5.92817136 6.29868185 5.92817136 16.67298114 0 22.60115248zM319.82051228 489.3062199L269.43105837 439.28727721 363.54077387 344.06602951 339.08706825 319.2418127 244.97735276 414.83357157 199.77504851 369.6312666l94.10971549-95.59175815-24.45370563-24.82421611L175.32134288 345.17756098l-23.71268466-23.71268393C144.93946591 314.79568473 141.23435891 305.90342807 141.23435891 296.64066094c0-9.63327762 3.33459652-17.78451331 10.37429931-24.82421683L271.28361151 152.51200203c13.70889583-13.70889583 35.93953711-13.70889583 49.64843294 0l167.84134286 167.84134284-167.10032189 166.7298114c-0.74102169 0.74102169-1.48204266 1.48204266-1.85255314 2.22306362zM184.9546205 778.30455942l51.50098609-151.9093834 157.09653304 158.5785757-234.16275692 81.14184136-3.3345958-3.33459651zM704.04009874 535.24954582l167.84134357 167.84134285c13.70889583 13.33838462 13.70889583 35.56902663 0.37051049 49.27792246l-0.37051049 0.37051048-119.67495329 119.67495329c-6.66919231 6.66919231-15.56144897 10.37429932-24.82421684 10.37429932s-18.15502379-3.70510699-24.82421609-10.37429932l-26.30625877-26.30625875 86.69950149-87.8110344-24.45370563-24.8242161-87.07001269 88.18154487-45.20230424-45.20230497 87.07001269-88.18154414-24.45370561-24.82421612-86.69950151 88.18154416-47.42536859-47.4253686 169.32338551-168.95287503z" /></svg>